<svg width="586" height="328" viewBox="0 0 586 328" fill="none" xmlns="http://www.w3.org/2000/svg">
<g clip-path="url(#clip0_3680_20608)">
<rect width="586" height="328" fill="white"/>
<mask id="mask0_3680_20608" style="mask-type:alpha" maskUnits="userSpaceOnUse" x="0" y="-1" width="586" height="330">
<path d="M0 -0.5H586V328.5H0V-0.5Z" fill="#C4C4C4"/>
</mask>
<g mask="url(#mask0_3680_20608)">
<rect width="586" height="329.737" transform="translate(0 -0.5)" fill="#F2F1FF"/>
<mask id="mask1_3680_20608" style="mask-type:alpha" maskUnits="userSpaceOnUse" x="0" y="-1" width="586" height="331">
<rect y="-0.5" width="586" height="329.737" fill="#F2F1FF"/>
</mask>
<g mask="url(#mask1_3680_20608)">
<rect y="-0.5" width="586" height="329.737" fill="#F2F1FF"/>
<path d="M442.875 63.8909C444.652 69.798 453.817 80.8565 454.541 88.9047C455.264 96.9529 439.638 109.825 439.638 109.825C439.638 109.825 427.959 71.0827 435.271 66.5611C442.583 62.0395 442.875 63.8909 442.875 63.8909Z" fill="#27266A"/>
<path d="M410.785 105.744C408.017 108.037 405.301 109.964 402.47 111.941C399.639 113.918 396.72 115.72 393.749 117.407C390.768 119.157 387.696 120.751 384.546 122.181C382.947 122.899 381.36 123.604 379.71 124.221C378.897 124.549 378.072 124.864 377.234 125.141L374.696 126.022C372.525 126.625 370.254 126.787 368.019 126.501C366.15 126.284 364.3 125.93 362.484 125.443C359.099 124.514 355.786 123.343 352.57 121.942C346.327 119.237 340.305 116.058 334.557 112.432L336.931 108.049C339.927 109.309 342.999 110.568 346.045 111.664C349.092 112.76 352.164 113.918 355.236 114.863C358.231 115.837 361.283 116.628 364.375 117.231C365.795 117.506 367.233 117.679 368.679 117.747C369.756 117.83 370.84 117.719 371.878 117.42C374.774 116.32 377.605 115.059 380.357 113.641C381.766 112.911 383.163 112.168 384.533 111.362C385.904 110.556 387.301 109.775 388.659 108.943C391.388 107.268 394.054 105.492 396.694 103.666C399.335 101.84 401.962 99.8876 404.311 98.0361L410.785 105.744Z" fill="#FFE3D3"/>
<path d="M417.487 92.3308C414.339 89.8874 401.315 97.8852 397.367 101.223L400.249 118.516C400.249 118.516 418.973 110.732 420.09 105.417C421.27 99.8626 419.836 94.1949 417.487 92.3308Z" fill="#4A3AFF"/>
<path opacity="0.2" d="M417.487 92.3308C414.339 89.8874 401.315 97.8852 397.367 101.223L400.249 118.516C400.249 118.516 418.973 110.732 420.09 105.417C421.27 99.8626 419.836 94.1949 417.487 92.3308Z" fill="#211F54"/>
<path d="M461.295 144.663L421.765 152.309C401.341 97.4319 405.784 95.6308 405.784 95.6308C408.656 94.0646 411.624 92.6765 414.669 91.4744L415.203 91.2729C417.741 90.3535 418.249 90.2149 421.626 89.2325C427.44 87.8596 432.86 86.7135 439.575 85.7689L440.845 85.5925C442.114 85.4414 443.269 85.3155 444.437 85.2021C445.224 85.1139 446.011 85.0636 446.76 85.0132L449.299 84.8746C453.64 84.6605 456.75 84.7235 456.75 84.7235C455.544 118.995 457.499 128.831 461.295 144.663Z" fill="#4A3AFF"/>
<path opacity="0.2" d="M461.295 144.663L421.765 152.309C401.341 97.4319 405.784 95.6308 405.784 95.6308C408.656 94.0646 411.624 92.6765 414.669 91.4744L415.203 91.2729C417.741 90.3535 418.249 90.2149 421.626 89.2325C427.44 87.8596 432.86 86.7135 439.575 85.7689L440.845 85.5925C442.114 85.4414 443.269 85.3155 444.437 85.2021C445.224 85.1139 446.011 85.0636 446.76 85.0132L449.299 84.8746C453.64 84.6605 456.75 84.7235 456.75 84.7235C455.544 118.995 457.499 128.831 461.295 144.663Z" fill="#211F54"/>
<path d="M430.334 67.8331C427.795 72.0021 436.998 73.9291 442.444 69.6594C446.798 66.2335 445.77 58.3238 442.038 56.485C438.306 54.6461 430.334 67.8331 430.334 67.8331Z" fill="#4A3AFF"/>
<path opacity="0.4" d="M430.334 67.8331C427.795 72.0021 436.998 73.9291 442.444 69.6594C446.798 66.2335 445.77 58.3238 442.038 56.485C438.306 54.6461 430.334 67.8331 430.334 67.8331Z" fill="#211F54"/>
<path d="M538.753 340.239L530.363 345.479L515.422 327.896L523.813 322.644L538.753 340.239Z" fill="#FFE3D3"/>
<path d="M523.825 322.656L515.422 327.896L521.616 335.176L530.198 330.15L523.825 322.656Z" fill="#E8AD8C"/>
<path d="M422.375 152.309C422.375 152.309 422.235 230.171 428.645 259.492C435.323 289.998 454.96 359.396 454.96 359.396L469.203 357.57C469.203 357.57 458.07 287.466 453.323 257.15C448.156 224.113 451.33 146.716 451.33 146.716L422.375 152.309Z" fill="#4A3AFF"/>
<path opacity="0.8" d="M422.375 152.309C422.375 152.309 422.235 230.171 428.645 259.492C435.323 289.998 454.96 359.396 454.96 359.396L469.203 357.57C469.203 357.57 458.07 287.466 453.323 257.15C448.156 224.113 451.33 146.716 451.33 146.716L422.375 152.309Z" fill="white"/>
<path opacity="0.5" d="M450.441 181.227L443.459 174.325C443.726 204.238 445.414 219.012 451.216 235.108C450.302 218.093 450.225 197.966 450.441 181.227Z" fill="#211F54"/>
<path d="M432.2 150.293C432.2 150.293 453.488 214.641 464.049 251.708C475.195 290.816 517.923 334.067 517.923 334.067L530.185 327.039C530.185 327.039 500.989 285.979 490.25 249.492C468.416 175.42 477.391 159.727 461.282 144.663L432.2 150.293Z" fill="#4A3AFF"/>
<path opacity="0.8" d="M432.2 150.293C432.2 150.293 453.488 214.641 464.049 251.708C475.195 290.816 517.923 334.067 517.923 334.067L530.185 327.039C530.185 327.039 500.989 285.979 490.25 249.492C468.416 175.42 477.391 159.727 461.282 144.663L432.2 150.293Z" fill="white"/>
<path d="M415.469 45.1118C421.13 46.9885 426.271 60.9312 426.487 66.4226C426.703 71.9141 410.086 79.4837 410.086 79.4837C410.086 79.4837 402.762 61.8506 404.806 50.5151C405.694 45.5904 415.469 45.1118 415.469 45.1118Z" fill="#27266A"/>
<path d="M337.769 108.515L331.054 101.261L328.858 110.354C328.858 110.354 333.631 114.536 337.49 113.1L337.769 108.515Z" fill="#FFE3D3"/>
<path d="M324.25 99.1826L319.553 102.886L328.857 110.354L331.054 101.261L324.25 99.1826Z" fill="#FFE3D3"/>
<g style="mix-blend-mode:multiply" opacity="0.27">
<path d="M458.032 104.585L451.939 108.188L458.972 134.423C457.436 126.476 458.121 117.747 458.032 104.585Z" fill="#4A3AFF"/>
</g>
<path d="M423.403 63.6265C427.731 67.2161 434.015 72.443 441.416 66.3344C447.763 61.0697 452.206 47.2529 440.819 46.7491C434.865 46.4846 423.403 63.6265 423.403 63.6265Z" fill="#27266A"/>
<path d="M433.863 66.0825C433.863 72.0274 434.789 82.7458 439.575 85.7938C439.575 85.7938 439.143 91.915 428.404 93.9805C416.611 96.2602 421.626 89.2574 421.626 89.2574C427.769 86.4865 426.703 81.7759 424.672 77.544L433.863 66.0825Z" fill="#FFE3D3"/>
<path d="M430.118 70.7559L424.685 77.5446C425.161 78.5258 425.551 79.5455 425.853 80.5926C428.239 79.7613 431.095 76.4362 430.854 73.8291C430.802 72.7683 430.552 71.7264 430.118 70.7559V70.7559Z" fill="#E8AD8C"/>
<path d="M434.434 52.4292C435.703 62.1148 436.477 66.183 432.568 72.0397C426.69 80.8562 414.428 80.2894 410.252 71.1832C406.443 62.9838 405.022 48.5121 413.704 42.9073C415.614 41.6533 417.814 40.9049 420.097 40.7333C422.381 40.5618 424.67 40.9727 426.748 41.9272C428.826 42.8816 430.623 44.3476 431.968 46.1859C433.313 48.0242 434.162 50.1734 434.434 52.4292Z" fill="#FFE3D3"/>
<path d="M417.475 35.4644C410.874 40.112 424.114 41.4848 424.126 48.2232C424.126 51.0067 428.734 59.8358 435.285 59.332L441.632 48.1476C448.309 37.4418 432.53 24.8468 417.475 35.4644Z" fill="#27266A"/>
<path d="M417.475 35.4644C405.86 34.8598 400.795 44.0291 402.128 52.2662C410.23 50.2617 418.612 49.602 426.932 50.314C442.85 51.9261 417.475 35.4644 417.475 35.4644Z" fill="#27266A"/>
<path d="M437.608 60.78C437.769 62.66 437.17 64.5265 435.945 65.9691C434.307 67.871 432.136 66.75 431.375 64.4955C430.727 62.4551 430.804 59.0167 433.012 57.9335C433.5 57.7095 434.037 57.6097 434.573 57.643C435.11 57.6762 435.63 57.8416 436.086 58.1241C436.542 58.4065 436.92 58.7973 437.185 59.2609C437.451 59.7246 437.596 60.2467 437.608 60.78V60.78Z" fill="#FFE3D3"/>
<path d="M420.331 57.9337C420.483 58.7146 420.191 59.4199 419.683 59.5207C419.176 59.6214 418.63 59.0672 418.477 58.2612C418.325 57.4551 418.617 56.7623 419.125 56.6616C419.633 56.5608 420.178 57.1528 420.331 57.9337Z" fill="#27266A"/>
<path d="M411.458 59.6464C411.61 60.4273 411.318 61.1452 410.81 61.246C410.303 61.3468 409.757 60.7926 409.604 59.9865C409.452 59.1804 409.744 58.4877 410.252 58.3995C410.76 58.3114 411.305 58.853 411.458 59.6464Z" fill="#27266A"/>
<path d="M410.493 58.4123L408.5 58.2485C408.5 58.2485 409.757 59.5206 410.493 58.4123Z" fill="#27266A"/>
<path d="M414.073 60.5405C413.716 62.4485 413.101 64.3 412.245 66.0446C412.7 66.2551 413.196 66.3642 413.698 66.3642C414.2 66.3642 414.696 66.2551 415.152 66.0446L414.073 60.5405Z" fill="#E8AD8C"/>
<path d="M418.465 68.5634C418.41 68.5642 418.357 68.5455 418.315 68.5109C418.273 68.4762 418.245 68.4278 418.236 68.3745C418.231 68.3447 418.231 68.3141 418.238 68.2845C418.245 68.2549 418.257 68.227 418.275 68.2023C418.293 68.1777 418.315 68.1568 418.341 68.1409C418.367 68.1251 418.396 68.1146 418.427 68.11C419.408 67.9406 420.335 67.5445 421.133 66.9537C421.932 66.363 422.579 65.5941 423.022 64.7093C423.034 64.6812 423.051 64.6556 423.072 64.6341C423.094 64.6125 423.12 64.5954 423.148 64.5837C423.176 64.572 423.207 64.566 423.237 64.5659C423.268 64.5659 423.298 64.5718 423.327 64.5834C423.355 64.5949 423.381 64.6119 423.402 64.6334C423.424 64.6549 423.441 64.6804 423.453 64.7084C423.465 64.7365 423.471 64.7666 423.471 64.797C423.471 64.8274 423.465 64.8575 423.453 64.8856C422.989 65.8471 422.297 66.6834 421.438 67.3236C420.578 67.9638 419.576 68.389 418.515 68.5634H418.465Z" fill="#27266A"/>
<path d="M422.375 54.5835C422.259 54.5849 422.146 54.5446 422.058 54.4702C421.63 54.0674 421.113 53.7707 420.549 53.6044C419.984 53.438 419.387 53.4066 418.808 53.5129C418.68 53.5447 418.545 53.5247 418.431 53.4574C418.318 53.3901 418.237 53.2809 418.205 53.154C418.173 53.0271 418.193 52.8927 418.261 52.7805C418.329 52.6683 418.439 52.5875 418.567 52.5557C419.299 52.4128 420.054 52.4444 420.772 52.6481C421.489 52.8517 422.147 53.2215 422.692 53.7271C422.779 53.8143 422.828 53.9319 422.828 54.0545C422.828 54.1771 422.779 54.2948 422.692 54.382C422.657 54.436 422.61 54.482 422.555 54.5167C422.501 54.5515 422.439 54.5742 422.375 54.5835V54.5835Z" fill="#27266A"/>
<path d="M406.545 56.3344C406.487 56.3474 406.426 56.3474 406.367 56.3344C406.309 56.311 406.257 56.2763 406.212 56.2325C406.168 56.1886 406.133 56.1364 406.11 56.0789C406.086 56.0214 406.074 55.9598 406.075 55.8977C406.075 55.8356 406.089 55.7742 406.114 55.7173C406.384 55.0284 406.816 54.4139 407.375 53.9252C407.934 53.4365 408.602 53.0879 409.325 52.9086C409.386 52.8959 409.449 52.8957 409.51 52.9081C409.571 52.9205 409.629 52.9451 409.68 52.9805C409.731 53.0159 409.775 53.0613 409.808 53.1139C409.84 53.1665 409.862 53.2252 409.871 53.2864C409.884 53.3461 409.884 53.4077 409.873 53.4675C409.861 53.5274 409.837 53.5843 409.803 53.6349C409.769 53.6855 409.724 53.7286 409.673 53.7618C409.621 53.795 409.563 53.8175 409.503 53.828C408.932 53.9824 408.406 54.2665 407.965 54.6578C407.524 55.0492 407.182 55.5369 406.964 56.0825C406.923 56.1578 406.863 56.2209 406.789 56.2652C406.716 56.3095 406.631 56.3334 406.545 56.3344Z" fill="#27266A"/>
<path d="M419.366 56.6993L417.373 56.5229C417.373 56.5229 418.629 57.8076 419.366 56.6993Z" fill="#27266A"/>
<path d="M428.087 102.357C406.85 107.054 413.413 94.3083 414.682 91.4996L415.215 91.2981C417.754 90.3786 418.262 90.2401 421.638 89.2577C427.531 87.6795 433.529 86.522 439.588 85.7941L440.857 85.6177C442.127 85.454 443.282 85.328 444.45 85.2273C445.237 85.1391 446.024 85.0887 446.773 85.0383L449.311 84.8872C449.743 86.852 450.797 97.3563 428.087 102.357Z" fill="#FFE3D3"/>
<path d="M456.915 147.724L457.994 147.522C458.21 147.522 458.35 147.346 458.312 147.207L456.915 142.749C456.915 142.61 456.661 142.547 456.446 142.585L455.379 142.787C455.163 142.787 455.024 142.975 455.062 143.101L456.458 147.573C456.496 147.699 456.712 147.774 456.915 147.724Z" fill="#4A3AFF"/>
<path d="M432.631 162.586L424.368 159.538L425.637 167.334C425.637 167.334 431.629 169.476 434.688 166.73L432.631 162.586Z" fill="#FFE3D3"/>
<path d="M416.497 161.604L414.529 166.717L425.637 167.334L424.367 159.538L416.497 161.604Z" fill="#FFE3D3"/>
<path d="M424.989 153.896L426.068 153.694C426.271 153.694 426.424 153.518 426.373 153.379L424.977 148.921C424.977 148.782 424.735 148.719 424.52 148.757L423.441 148.958C423.225 148.958 423.085 149.147 423.136 149.273L424.532 153.745C424.57 153.87 424.773 153.946 424.989 153.896Z" fill="#4A3AFF"/>
<path d="M440.959 150.797L442.025 150.595C442.241 150.595 442.381 150.419 442.342 150.28L440.946 145.822C440.946 145.683 440.692 145.62 440.476 145.658L439.41 145.859C439.194 145.859 439.055 146.048 439.093 146.174L440.489 150.645C440.54 150.718 440.613 150.773 440.698 150.8C440.783 150.827 440.875 150.826 440.959 150.797Z" fill="#4A3AFF"/>
<path d="M436.439 80.7937C437.341 80.4536 438.471 83.6024 438.191 84.0054C437.544 84.9249 425.688 88.1366 425.154 86.3355C425.121 85.3592 425.272 84.3854 425.599 83.4638C425.942 82.8593 428.569 83.9677 436.439 80.7937Z" fill="#4A3AFF"/>
<path d="M434.434 80.8691C434.891 79.8237 436.198 78.1486 437.341 79.1058C438.483 80.063 438.966 82.1286 438.217 82.4687C437.468 82.8088 433.647 82.6198 434.434 80.8691Z" fill="#4A3AFF"/>
<path d="M436.858 81.4109C437.645 80.5796 439.397 79.4335 440.197 80.7182C440.996 82.0029 440.704 84.1062 439.892 84.1692C439.08 84.2322 435.525 82.7838 436.858 81.4109Z" fill="#4A3AFF"/>
<path d="M437.29 81.2222C437.226 80.5526 437.359 79.8789 437.672 79.2822C437.985 78.6856 438.465 78.1915 439.055 77.8593C440.502 76.9273 441.911 76.3227 442.469 75.3403C442.71 76.2614 442.758 77.2216 442.609 78.1616C442.317 79.5093 437.811 80.5421 438.115 81.7134L437.29 81.2222Z" fill="#4A3AFF"/>
<path d="M437.1 81.1594C436.679 80.6307 436.422 79.9927 436.359 79.3222C436.296 78.6518 436.43 77.9775 436.744 77.3808C437.43 75.8191 438.293 74.5595 438.242 73.4512C438.947 74.0955 439.513 74.8754 439.905 75.7435C440.387 77.003 437.176 80.3155 438.077 81.1467L437.1 81.1594Z" fill="#4A3AFF"/>
<path d="M525.387 327.203C525.361 327.202 525.336 327.195 525.313 327.182C525.291 327.168 525.273 327.15 525.26 327.128C524.968 326.724 495.949 285.639 485.312 249.542C478.369 226.387 473.034 202.787 469.342 178.909C467.146 165.457 465.813 157.334 461.447 150.671C461.417 150.64 461.401 150.6 461.401 150.558C461.401 150.515 461.417 150.475 461.447 150.444C461.477 150.418 461.515 150.404 461.555 150.404C461.594 150.404 461.633 150.418 461.663 150.444C466.08 157.17 467.413 165.319 469.609 178.808C473.318 202.653 478.662 226.218 485.603 249.34C496.228 285.387 525.222 326.422 525.514 326.838C525.537 326.869 525.55 326.906 525.55 326.945C525.55 326.984 525.537 327.021 525.514 327.052C525.512 327.087 525.498 327.121 525.476 327.149C525.453 327.176 525.421 327.195 525.387 327.203V327.203Z" fill="#4A3AFF"/>
<path opacity="0.6" d="M525.387 327.203C525.361 327.202 525.336 327.195 525.313 327.182C525.291 327.168 525.273 327.15 525.26 327.128C524.968 326.724 495.949 285.639 485.312 249.542C478.369 226.387 473.034 202.787 469.342 178.909C467.146 165.457 465.813 157.334 461.447 150.671C461.417 150.64 461.401 150.6 461.401 150.558C461.401 150.515 461.417 150.475 461.447 150.444C461.477 150.418 461.515 150.404 461.555 150.404C461.594 150.404 461.633 150.418 461.663 150.444C466.08 157.17 467.413 165.319 469.609 178.808C473.318 202.653 478.662 226.218 485.603 249.34C496.228 285.387 525.222 326.422 525.514 326.838C525.537 326.869 525.55 326.906 525.55 326.945C525.55 326.984 525.537 327.021 525.514 327.052C525.512 327.087 525.498 327.121 525.476 327.149C525.453 327.176 525.421 327.195 525.387 327.203V327.203Z" fill="white"/>
<path d="M531.213 326.612L516.907 334.811L512.083 330.718L527.735 320.213L531.213 326.612Z" fill="#4A3AFF"/>
<path d="M464.074 98.0615C464.76 101.563 465.153 104.863 465.534 108.276C465.915 111.689 466.055 115.065 466.156 118.478C466.257 121.918 466.181 125.361 465.928 128.793C465.788 130.519 465.636 132.244 465.395 133.983C465.293 134.839 465.179 135.708 465.014 136.577L464.544 139.247C464.024 141.424 463.07 143.475 461.739 145.28C460.647 146.799 459.442 148.235 458.134 149.575C455.684 152.072 453.054 154.387 450.263 156.503C444.865 160.626 439.153 164.328 433.177 167.574L430.461 163.392C432.999 161.389 435.538 159.324 438.077 157.22C440.616 155.117 443.028 152.989 445.351 150.772C447.646 148.638 449.812 146.371 451.837 143.983C452.767 142.878 453.616 141.708 454.376 140.482C454.976 139.588 455.406 138.594 455.646 137.547C456.058 134.489 456.3 131.412 456.369 128.327C456.369 126.753 456.369 125.179 456.369 123.604C456.369 122.03 456.306 120.43 456.23 118.843C456.077 115.669 455.785 112.546 455.442 109.321C455.1 106.097 454.655 102.911 454.173 99.9256L464.074 98.0615Z" fill="#FFE3D3"/>
<path d="M462.539 87.356C467.959 91.7139 466.664 104.662 466.664 104.662L448.385 110.632C448.385 110.632 449.222 95.7065 450.136 90.341C451.203 83.9553 457.194 83.0611 462.539 87.356Z" fill="#4A3AFF"/>
<path opacity="0.2" d="M462.539 87.356C467.959 91.7139 466.664 104.662 466.664 104.662L448.385 110.632C448.385 110.632 449.222 95.7065 450.136 90.341C451.203 83.9553 457.194 83.0611 462.539 87.356Z" fill="#211F54"/>
<path d="M221.06 141.389C220.351 138.335 218.619 135.61 216.147 133.658C213.676 131.707 210.61 130.645 207.452 130.645H105.899C102.196 130.645 98.6445 132.105 96.0258 134.703C93.4072 137.301 91.936 140.825 91.936 144.5V368.465C91.936 372.139 93.4072 375.663 96.0258 378.261C98.6445 380.86 102.196 382.319 105.899 382.319H428.328C432.032 382.319 435.583 380.86 438.202 378.261C440.821 375.663 442.292 372.139 442.292 368.465V180.332C442.292 176.658 440.821 173.134 438.202 170.536C435.583 167.938 432.032 166.478 428.328 166.478H252.833C245.458 166.479 238.299 163.999 232.528 159.442C226.757 154.884 222.714 148.52 221.06 141.389V141.389Z" fill="#4A3AFF"/>
<path opacity="0.78" d="M221.061 141.36C220.352 138.306 218.62 135.581 216.149 133.63C213.677 131.679 210.612 130.616 207.453 130.617H105.901C102.198 130.617 98.646 132.076 96.0273 134.675C93.4086 137.273 91.9375 140.797 91.9375 144.471V368.436C91.9375 372.111 93.4086 375.635 96.0273 378.233C98.646 380.831 102.198 382.291 105.901 382.291H428.33C432.033 382.291 435.585 380.831 438.204 378.233C440.822 375.635 442.293 372.111 442.293 368.436V180.304C442.293 176.63 440.822 173.106 438.204 170.508C435.585 167.909 432.033 166.45 428.33 166.45H252.835C245.459 166.451 238.301 163.97 232.53 159.413C226.759 154.856 222.716 148.492 221.061 141.36V141.36Z" fill="white"/>
<g opacity="0.28">
<path opacity="0.28" d="M241.561 274.228L154.429 300.93C152.799 301.426 151.038 301.263 149.53 300.474C148.022 299.686 146.89 298.337 146.381 296.723V296.723C145.885 295.106 146.054 293.36 146.85 291.867C147.647 290.373 149.007 289.253 150.633 288.75L237.765 262.036C239.397 261.54 241.159 261.706 242.668 262.497C244.176 263.287 245.307 264.639 245.813 266.256V266.256C246.309 267.872 246.141 269.618 245.344 271.112C244.547 272.606 243.187 273.726 241.561 274.228V274.228Z" fill="#4A3AFF"/>
</g>
<g opacity="0.28">
<path opacity="0.28" d="M235.442 170.143L170.83 189.955C169.2 190.447 167.441 190.279 165.935 189.489C164.43 188.698 163.301 187.349 162.794 185.735C162.298 184.12 162.465 182.376 163.259 180.882C164.053 179.389 165.41 178.267 167.034 177.763L231.647 157.95C233.278 157.461 235.038 157.63 236.544 158.42C238.051 159.21 239.183 160.557 239.695 162.17V162.17C240.191 163.787 240.022 165.532 239.226 167.026C238.429 168.52 237.069 169.64 235.442 170.143V170.143Z" fill="#4A3AFF"/>
</g>
<g opacity="0.28">
<path opacity="0.28" d="M207.617 231.669L139.361 252.59C137.733 253.083 135.975 252.917 134.47 252.129C132.965 251.341 131.835 249.994 131.326 248.383V248.383C130.829 246.766 130.995 245.02 131.789 243.525C132.583 242.029 133.941 240.906 135.566 240.398L203.821 219.477C205.453 218.985 207.214 219.152 208.721 219.942C210.229 220.733 211.361 222.082 211.87 223.697V223.697C212.369 225.314 212.202 227.061 211.405 228.556C210.607 230.05 209.245 231.17 207.617 231.669Z" fill="#4A3AFF"/>
</g>
<g opacity="0.28">
<path opacity="0.28" d="M250.51 218.533L232.294 224.112C230.663 224.605 228.902 224.438 227.394 223.647C225.887 222.857 224.755 221.508 224.246 219.893V219.893C223.75 218.276 223.919 216.53 224.716 215.037C225.512 213.543 226.872 212.423 228.499 211.92L246.715 206.341C248.342 205.844 250.102 206.009 251.608 206.797C253.114 207.586 254.244 208.934 254.75 210.547V210.547C255.25 212.164 255.085 213.912 254.291 215.408C253.496 216.905 252.137 218.028 250.51 218.533V218.533Z" fill="#4A3AFF"/>
</g>
<g opacity="0.28">
<path opacity="0.28" d="M258.038 242.741L146.914 276.747C145.283 277.243 143.521 277.078 142.012 276.287C140.504 275.496 139.373 274.144 138.866 272.528V272.528C138.367 270.911 138.534 269.164 139.331 267.669C140.128 266.175 141.491 265.055 143.119 264.555L254.255 230.486C255.887 229.996 257.646 230.165 259.153 230.955C260.66 231.745 261.792 233.092 262.303 234.705V234.705C262.558 235.51 262.65 236.358 262.574 237.199C262.497 238.039 262.253 238.857 261.857 239.604C261.46 240.351 260.919 241.013 260.263 241.551C259.608 242.089 258.852 242.494 258.038 242.741V242.741Z" fill="#4A3AFF"/>
</g>
<path d="M305.678 85.5918L196.281 92.2924C194.348 92.4063 192.457 92.8974 190.716 93.7373C188.975 94.5773 187.418 95.7497 186.134 97.1875C184.85 98.6253 183.864 100.3 183.233 102.116C182.602 103.933 182.339 105.854 182.457 107.772L194.936 308.386C195.052 310.304 195.549 312.182 196.398 313.909C197.247 315.637 198.431 317.182 199.882 318.455C201.334 319.728 203.025 320.704 204.857 321.328C206.69 321.952 208.628 322.21 210.562 322.089L350.577 313.512C352.508 313.396 354.396 312.904 356.135 312.063C357.873 311.222 359.427 310.049 360.708 308.611C361.989 307.173 362.971 305.498 363.598 303.683C364.225 301.868 364.485 299.948 364.363 298.032L353.827 127.785L305.678 85.5918Z" fill="#4A3AFF"/>
<path d="M305.678 85.5918L196.281 92.2924C194.348 92.4063 192.457 92.8974 190.716 93.7373C188.975 94.5773 187.418 95.7497 186.134 97.1875C184.85 98.6253 183.864 100.3 183.233 102.116C182.602 103.933 182.339 105.854 182.457 107.772L194.936 308.386C195.052 310.304 195.549 312.182 196.398 313.909C197.247 315.637 198.431 317.182 199.882 318.455C201.334 319.728 203.025 320.704 204.857 321.328C206.69 321.952 208.628 322.21 210.562 322.089L350.577 313.512C352.508 313.396 354.396 312.904 356.135 312.063C357.873 311.222 359.427 310.049 360.708 308.611C361.989 307.173 362.971 305.498 363.598 303.683C364.225 301.868 364.485 299.948 364.363 298.032L353.827 127.785L305.678 85.5918Z" fill="white"/>
<g opacity="0.22">
<path opacity="0.22" d="M312.292 295.64L221.263 301.219C219.563 301.316 217.893 300.741 216.618 299.62C215.343 298.499 214.567 296.923 214.459 295.237V295.237C214.362 293.55 214.939 291.894 216.066 290.627C217.192 289.361 218.777 288.587 220.476 288.473L311.505 282.906C313.206 282.806 314.877 283.378 316.154 284.496C317.432 285.615 318.211 287.19 318.322 288.876V288.876C318.423 290.566 317.845 292.226 316.715 293.493C315.585 294.761 313.994 295.533 312.292 295.64V295.64Z" fill="#4A3AFF"/>
</g>
<g opacity="0.22">
<path opacity="0.22" d="M258.419 121.425L210.271 124.347C208.571 124.444 206.901 123.871 205.625 122.753C204.348 121.635 203.568 120.063 203.454 118.377V118.377C203.356 116.689 203.935 115.03 205.065 113.763C206.194 112.497 207.782 111.724 209.483 111.614L257.632 108.666C259.331 108.566 261.001 109.139 262.277 110.257C263.552 111.376 264.328 112.951 264.436 114.637C264.544 116.328 263.971 117.993 262.843 119.266C261.715 120.539 260.124 121.315 258.419 121.425V121.425Z" fill="#4A3AFF"/>
</g>
<g opacity="0.22">
<path opacity="0.22" d="M291.398 144.776L211.844 149.638C210.143 149.741 208.47 149.17 207.192 148.051C205.914 146.932 205.135 145.355 205.028 143.667V143.667C204.927 141.978 205.505 140.318 206.635 139.05C207.765 137.783 209.355 137.011 211.057 136.904L290.598 132.042C292.3 131.939 293.973 132.509 295.251 133.629C296.529 134.748 297.307 136.324 297.415 138.012V138.012C297.516 139.7 296.94 141.358 295.812 142.625C294.685 143.893 293.098 144.666 291.398 144.776V144.776Z" fill="#4A3AFF"/>
</g>
<g opacity="0.22">
<path opacity="0.22" d="M329.518 167.812L213.418 174.916C211.712 175.019 210.034 174.448 208.752 173.327C207.469 172.205 206.687 170.626 206.576 168.933V168.933C206.475 167.247 207.052 165.59 208.179 164.325C209.307 163.06 210.894 162.289 212.593 162.182L328.705 155.066C330.406 154.97 332.076 155.545 333.351 156.665C334.626 157.786 335.402 159.362 335.509 161.049V161.049C335.611 162.732 335.038 164.387 333.916 165.653C332.794 166.92 331.213 167.696 329.518 167.812V167.812Z" fill="#4A3AFF"/>
</g>
<g opacity="0.22">
<path opacity="0.22" d="M331.092 193.079L263.598 197.21C261.898 197.31 260.226 196.738 258.949 195.62C257.672 194.501 256.893 192.926 256.781 191.24C256.677 189.552 257.252 187.891 258.38 186.623C259.508 185.355 261.097 184.583 262.798 184.476L330.293 180.345C331.994 180.242 333.667 180.812 334.945 181.931C336.223 183.051 337.002 184.627 337.109 186.315C337.21 188.002 336.634 189.661 335.507 190.928C334.379 192.195 332.792 192.968 331.092 193.079Z" fill="#4A3AFF"/>
</g>
<g opacity="0.22">
<path opacity="0.22" d="M232.637 199.099L214.98 200.182C213.281 200.282 211.611 199.71 210.335 198.591C209.06 197.472 208.284 195.898 208.176 194.212V194.212C208.075 192.525 208.651 190.866 209.779 189.599C210.906 188.332 212.493 187.559 214.193 187.449L231.85 186.365C233.552 186.269 235.224 186.843 236.5 187.964C237.777 189.085 238.556 190.66 238.667 192.348C238.764 194.035 238.185 195.692 237.055 196.957C235.925 198.222 234.337 198.992 232.637 199.099V199.099Z" fill="#4A3AFF"/>
</g>
<g opacity="0.22">
<path opacity="0.22" d="M332.666 218.343L216.554 225.447C214.853 225.547 213.182 224.975 211.904 223.857C210.627 222.738 209.848 221.164 209.737 219.477C209.639 217.788 210.219 216.13 211.348 214.863C212.477 213.596 214.066 212.824 215.767 212.713L331.866 205.61C333.569 205.51 335.242 206.083 336.52 207.204C337.797 208.326 338.575 209.904 338.683 211.592C338.784 213.279 338.207 214.936 337.08 216.201C335.952 217.466 334.365 218.236 332.666 218.343V218.343Z" fill="#4A3AFF"/>
</g>
<g opacity="0.22">
<path opacity="0.22" d="M289.43 246.355L218.128 250.726C216.426 250.822 214.754 250.248 213.478 249.127C212.201 248.007 211.422 246.431 211.311 244.743V244.743C211.214 243.056 211.793 241.399 212.923 240.134C214.053 238.869 215.641 238.099 217.341 237.992L288.643 233.622C290.344 233.525 292.014 234.1 293.288 235.221C294.563 236.342 295.339 237.918 295.447 239.604V239.604C295.551 241.291 294.976 242.95 293.848 244.216C292.719 245.482 291.13 246.252 289.43 246.355V246.355Z" fill="#4A3AFF"/>
</g>
<g opacity="0.22">
<path opacity="0.22" d="M334.227 243.623L315.186 244.781C313.487 244.881 311.817 244.309 310.542 243.19C309.267 242.071 308.49 240.497 308.382 238.811V238.811C308.278 237.123 308.853 235.463 309.981 234.195C311.109 232.927 312.698 232.155 314.399 232.048L333.44 230.889C335.142 230.785 336.815 231.356 338.093 232.475C339.371 233.594 340.149 235.171 340.257 236.859C340.355 238.548 339.775 240.206 338.646 241.473C337.517 242.74 335.929 243.512 334.227 243.623Z" fill="#4A3AFF"/>
</g>
<g opacity="0.22">
<path opacity="0.22" d="M335.802 268.887L219.702 275.991C218.001 276.091 216.33 275.519 215.053 274.401C213.776 273.282 212.996 271.708 212.885 270.021V270.021C212.784 268.334 213.361 266.675 214.488 265.408C215.615 264.141 217.202 263.368 218.902 263.257L335.015 256.154C336.714 256.054 338.384 256.626 339.659 257.745C340.934 258.864 341.711 260.438 341.819 262.124C341.923 263.812 341.348 265.472 340.22 266.74C339.092 268.008 337.503 268.78 335.802 268.887Z" fill="#4A3AFF"/>
</g>
<path opacity="0.22" d="M305.679 85.5918L307.57 115.971C307.688 117.887 308.185 119.76 309.033 121.485C309.881 123.21 311.063 124.752 312.512 126.023C313.961 127.294 315.648 128.27 317.477 128.894C319.306 129.519 321.241 129.78 323.171 129.662L353.827 127.785L305.679 85.5918Z" fill="#4A3AFF"/>
<path d="M269.856 161.377C269.837 159.921 269.524 158.484 268.936 157.15C268.347 155.816 267.495 154.613 266.43 153.611C265.365 152.61 264.109 151.83 262.735 151.319C261.361 150.807 259.898 150.574 258.432 150.633H156.752C149.047 150.633 141.519 156.842 140.072 164.488L99.9464 368.464C98.4485 376.11 103.475 382.319 111.181 382.319H433.61C441.315 382.319 448.779 376.122 450.289 368.464L483.383 200.32C484.881 192.663 479.854 186.466 472.149 186.466H296.704C281.471 186.466 270.377 176.062 269.856 161.377Z" fill="#4A3AFF"/>
<path opacity="0.6" d="M269.856 161.377C269.837 159.921 269.524 158.484 268.936 157.15C268.347 155.816 267.495 154.613 266.43 153.611C265.365 152.61 264.109 151.83 262.735 151.319C261.361 150.807 259.898 150.574 258.432 150.633H156.752C149.047 150.633 141.519 156.842 140.072 164.488L99.9464 368.464C98.4485 376.11 103.475 382.319 111.181 382.319H433.61C441.315 382.319 448.779 376.122 450.289 368.464L483.383 200.32C484.881 192.663 479.854 186.466 472.149 186.466H296.704C281.471 186.466 270.377 176.062 269.856 161.377Z" fill="white"/>
</g>
</g>
</g>
<defs>
<clipPath id="clip0_3680_20608">
<rect width="586" height="328" fill="white"/>
</clipPath>
</defs>
</svg>
