<svg width="586" height="328" viewBox="0 0 586 328" fill="none" xmlns="http://www.w3.org/2000/svg">
<g clip-path="url(#clip0_3680_20610)">
<rect width="586" height="328" fill="white"/>
<mask id="mask0_3680_20610" style="mask-type:alpha" maskUnits="userSpaceOnUse" x="0" y="-1" width="586" height="330">
<path d="M0 -0.5H586V328.5H0V-0.5Z" fill="#C4C4C4"/>
</mask>
<g mask="url(#mask0_3680_20610)">
<rect width="586" height="329.737" transform="translate(0 -0.5)" fill="#F2F1FF"/>
<mask id="mask1_3680_20610" style="mask-type:alpha" maskUnits="userSpaceOnUse" x="0" y="-1" width="586" height="331">
<rect y="-0.5" width="586" height="329.737" fill="#F2F1FF"/>
</mask>
<g mask="url(#mask1_3680_20610)">
<rect y="-0.5" width="586" height="329.737" fill="#F2F1FF"/>
<path d="M486.42 367.67C490.737 350.322 480.147 332.765 462.766 328.456C445.385 324.146 427.794 334.716 423.477 352.065C419.159 369.413 429.749 386.97 447.131 391.279C464.512 395.589 482.102 385.018 486.42 367.67Z" fill="#F0F0F0"/>
<path d="M202.401 235.599C206.312 224.17 203.205 216.031 193.647 216.031C187.638 216.031 180.209 219.179 172.97 224.453C172.58 222.984 171.678 221.702 170.426 220.836C169.175 219.971 167.655 219.579 166.14 219.73C159.626 219.73 150.636 225.24 143.57 233.017C141.589 231.129 138.959 230.069 136.22 230.057C129.911 229.695 122.419 232.859 115.842 238.007C115.523 237.552 115.102 237.178 114.611 236.916C114.121 236.653 113.575 236.509 113.019 236.496C109.423 236.291 104.549 239.487 102.136 243.627L101.71 244.383H204.356C204.786 241.315 204.091 238.196 202.401 235.599V235.599Z" fill="#F0F0F0"/>
<path d="M-24.4218 153.943L335.14 205.61L383.387 254.207L-24.4218 153.943Z" fill="#4A3AFF"/>
<path opacity="0.4" d="M-24.4218 153.943L335.14 205.61L383.387 254.207L-24.4218 153.943Z" fill="white"/>
<path d="M-24.4218 153.943L335.14 205.61L318.453 275.884L-24.4218 153.943Z" fill="#4A3AFF"/>
<path opacity="0.59" d="M-24.4218 153.943L335.14 205.61L318.453 275.884L-24.4218 153.943Z" fill="white"/>
<path d="M311.071 72.5857L331.938 170.189C332.481 172.738 331.989 175.397 330.569 177.584C329.15 179.771 326.92 181.307 324.367 181.854L138.128 221.525C135.575 222.063 132.912 221.57 130.722 220.154C128.532 218.738 126.993 216.514 126.441 213.969L105.558 116.366C105.02 113.815 105.516 111.156 106.938 108.969C108.36 106.783 110.592 105.248 113.145 104.7L299.384 65.0294C301.939 64.4923 304.604 64.9876 306.794 66.4067C308.985 67.8258 310.523 70.0533 311.071 72.6015V72.5857Z" fill="#4A3AFF"/>
<path d="M311.071 72.5857L331.938 170.189C332.481 172.738 331.989 175.397 330.569 177.584C329.15 179.771 326.92 181.307 324.367 181.854L138.128 221.525C135.575 222.063 132.912 221.57 130.722 220.154C128.532 218.738 126.993 216.514 126.441 213.969L105.558 116.366C105.02 113.815 105.516 111.156 106.938 108.969C108.36 106.783 110.592 105.248 113.145 104.7L299.384 65.0294C301.939 64.4923 304.604 64.9876 306.794 66.4067C308.985 67.8258 310.523 70.0533 311.071 72.6015V72.5857Z" fill="white"/>
<path opacity="0.19" d="M306.481 66.1944L244.259 142.435C238.488 149.504 230.473 154.394 221.539 156.298C212.605 158.202 203.288 157.004 195.128 152.904L107.134 108.668C108.558 106.626 110.706 105.202 113.144 104.685L299.383 65.0137C301.813 64.4974 304.349 64.9193 306.481 66.1944V66.1944Z" fill="#4A3AFF"/>
<path d="M-24.4218 153.943L272.145 224.296L318.453 275.884L-24.4218 153.943Z" fill="#4A3AFF"/>
<path opacity="0.5" d="M-24.4218 153.943L272.145 224.296L318.453 275.884L-24.4218 153.943Z" fill="white"/>
<path d="M-24.4218 153.943L272.145 224.296L214.497 293.641L-24.4218 153.943Z" fill="#4A3AFF"/>
<path opacity="0.7" d="M-24.4218 153.943L272.145 224.296L214.497 293.641L-24.4218 153.943Z" fill="white"/>
<path d="M485.719 176.392C489.898 184.53 493.731 192.685 497.374 201.029C501.018 209.372 504.409 217.826 507.374 226.689L508.446 230.042C508.636 230.64 508.904 231.616 509.062 232.309C509.219 233.001 509.361 233.789 509.44 234.45C509.801 236.99 509.986 239.551 509.992 242.116C510.016 246.847 509.795 251.576 509.33 256.285C508.449 265.399 507.016 274.452 505.04 283.393L496.381 282.433C496.27 273.57 496.191 264.612 495.876 255.875C495.734 251.53 495.482 247.17 495.04 243.077C494.84 241.155 494.524 239.246 494.094 237.362C494.015 236.921 493.889 236.591 493.794 236.229C493.699 235.867 493.605 235.741 493.447 235.268L492.248 232.293C488.952 224.327 485.245 216.299 481.46 208.302L470.009 184.31L485.719 176.392Z" fill="#FFE3D3"/>
<path d="M496.507 279.662L492.469 287.203L505.371 290.792C505.371 290.792 507.831 284.731 504.897 279.945L496.507 279.662Z" fill="#FFE3D3"/>
<path d="M487.533 298.065L499.394 299.009L505.371 290.792L492.47 287.203L487.533 298.065Z" fill="#FFE3D3"/>
<path d="M431.415 121.985C431.242 122.914 430.595 123.559 429.996 123.433C429.396 123.307 429.065 122.473 429.254 121.56C429.444 120.647 430.074 119.986 430.674 120.112C431.273 120.238 431.62 121.072 431.415 121.985Z" fill="#27266A"/>
<path d="M430.691 123.56C429.025 126.135 427.013 128.471 424.713 130.502C425.25 131.072 425.905 131.52 426.632 131.813C427.359 132.107 428.141 132.239 428.924 132.202L430.691 123.56Z" fill="#E8AD8C"/>
<path d="M435.801 117.593C435.652 117.589 435.51 117.527 435.407 117.42C434.954 116.903 434.385 116.499 433.747 116.242C433.108 115.985 432.418 115.881 431.732 115.94C431.601 115.941 431.474 115.896 431.374 115.813C431.273 115.73 431.206 115.613 431.183 115.485C431.16 115.356 431.184 115.224 431.25 115.111C431.316 114.999 431.42 114.913 431.543 114.87C432.42 114.759 433.311 114.866 434.136 115.182C434.962 115.498 435.696 116.012 436.274 116.68C436.376 116.783 436.432 116.921 436.432 117.066C436.432 117.21 436.376 117.348 436.274 117.451C436.211 117.509 436.136 117.552 436.054 117.576C435.972 117.601 435.886 117.607 435.801 117.593Z" fill="#27266A"/>
<path d="M457.502 134.847C455.846 143.316 454.19 158.807 460.12 164.458C460.12 164.458 457.801 173.038 442.045 173.038C424.695 173.038 433.78 164.458 433.78 164.458C443.244 162.207 442.976 155.202 441.335 148.637L457.502 134.847Z" fill="#FFE3D3"/>
<path d="M462.503 169.796C463.749 165.655 465.121 160.917 462.282 159.421C459.128 157.847 441.984 156.116 436.069 159.185C430.154 162.255 431.842 170.677 431.842 170.677L462.503 169.796Z" fill="white"/>
<path d="M428.466 184.766C418.777 184.017 409.136 182.74 399.587 180.94C394.855 180.027 390.029 179.004 385.234 177.713C380.319 176.458 375.493 174.88 370.787 172.991C369.572 172.487 368.342 171.936 367.127 171.416C365.76 170.744 364.443 169.976 363.184 169.118C360.913 167.622 358.957 166.064 357.017 164.521C353.153 161.373 349.573 158.224 345.977 154.997C338.926 148.48 332.239 141.742 325.788 134.658L331.592 128.188L354.478 144.607C358.248 147.315 362.064 149.975 365.818 152.478C367.679 153.722 369.588 154.887 371.339 155.878C372.071 156.295 372.829 156.663 373.61 156.98C374.54 157.343 375.487 157.705 376.48 158.051C385.005 160.671 393.722 162.618 402.552 163.876C411.558 165.292 420.864 166.457 429.854 167.402L428.466 184.766Z" fill="#FFE3D3"/>
<path d="M480.862 167.071C491.729 169.559 502.706 201.248 502.706 201.248L480.357 217.258C480.357 217.258 474.048 202.492 467.96 189.583C461.588 176.06 469.758 164.537 480.862 167.071Z" fill="#4A3AFF"/>
<path d="M474.599 184.388L470.167 194.29C474.757 204.176 478.953 213.968 480.072 216.581C479.915 204.884 477.691 190.37 474.599 184.388Z" fill="#4A3AFF"/>
<path opacity="0.3" d="M474.599 184.388L470.167 194.29C474.757 204.176 478.953 213.968 480.072 216.581C479.915 204.884 477.691 190.37 474.599 184.388Z" fill="white"/>
<path d="M415.959 167.67C415.959 167.67 403.625 181.57 415.265 267.634H477.235C477.676 258.189 471.699 211.811 480.862 167.071C474.013 165.755 467.085 164.882 460.122 164.458C451.349 163.954 442.555 163.954 433.782 164.458C427.766 165.063 421.807 166.137 415.959 167.67V167.67Z" fill="#4A3AFF"/>
<path d="M411.369 184.388C410.959 187.646 410.644 191.503 410.438 196.053C416.558 194.22 422.373 191.493 427.693 187.961L411.369 184.388Z" fill="#4A3AFF"/>
<path opacity="0.3" d="M411.369 184.388C410.959 187.646 410.644 191.503 410.438 196.053C416.558 194.22 422.373 191.493 427.693 187.961L411.369 184.388Z" fill="white"/>
<path d="M437.929 186.12C429.633 193.456 397.962 192.716 397.962 192.716L396.921 162.113C407.616 163.633 418.404 164.412 429.207 164.443C446.856 164.081 446.983 178.028 437.929 186.12Z" fill="#4A3AFF"/>
<path d="M331.892 128.251L324.006 118.979L315.505 128.424C315.505 128.424 320.741 137.209 329.053 135.823L331.892 128.251Z" fill="#FFE3D3"/>
<path d="M312.713 108.164L309.653 120.27L315.441 128.361L323.943 118.979L312.713 108.164Z" fill="#FFE3D3"/>
<path d="M439.774 110.556C429.38 105.834 426.099 84.8491 456.004 90.0913C456.004 90.0913 451.493 95.0659 460.641 98.2144C469.789 101.363 462.139 120.805 439.774 110.556Z" fill="#27266A"/>
<path d="M462.361 126.298C459.38 137.318 458.212 144.024 451.32 148.637C441.005 155.564 428.182 147.614 427.772 135.854C427.409 125.291 432.346 108.935 444.254 106.699C446.882 106.185 449.599 106.351 452.145 107.182C454.69 108.013 456.98 109.482 458.796 111.447C460.612 113.413 461.893 115.809 462.517 118.409C463.141 121.009 463.087 123.725 462.361 126.298Z" fill="#FFE3D3"/>
<path d="M455.593 95.6005C462.675 99.5361 472.265 101.897 471.366 107.502C470.183 114.35 477.154 110.068 475.529 120.253C474.473 126.912 462.17 147.094 453.448 146.118C440.42 144.544 442.076 124.771 442.029 114.35C441.997 108.194 441.714 87.8394 455.593 95.6005Z" fill="#27266A"/>
<path d="M440.469 104.433C437.314 105.173 433.134 123.324 445.358 124.992C459.411 126.897 440.469 104.433 440.469 104.433Z" fill="#27266A"/>
<path d="M440.783 110.871C436.919 111.217 428.165 106.573 429.238 99.5837C429.238 99.5365 434.774 107.754 440.783 110.871Z" fill="#27266A"/>
<path d="M446.525 126.44C445.339 129.036 443.326 131.167 440.8 132.501C437.472 134.233 435.595 131.714 436.352 128.377C437.03 125.386 439.586 120.868 443.008 120.506C446.431 120.143 447.898 123.292 446.525 126.44Z" fill="#FFE3D3"/>
<path d="M463.874 113.705C466.231 112.684 468.297 111.095 469.888 109.081C471.479 107.068 472.545 104.691 472.99 102.166C472.99 102.166 478.195 116.601 463.874 113.705Z" fill="#27266A"/>
<path d="M477.029 113.469C475.932 112.733 474.669 112.28 473.353 112.151C472.037 112.022 470.71 112.22 469.49 112.729C469.49 112.729 474.348 106.448 477.029 113.469Z" fill="#27266A"/>
<path d="M437.251 267.635C437.251 267.635 450.405 356.013 457.613 389.119C465.499 425.327 495.309 546.166 495.309 546.166H516.523C516.523 546.166 496.886 428.302 492.375 392.347C487.486 353.384 477.234 267.572 477.234 267.572L437.251 267.635Z" fill="#4A3AFF"/>
<path opacity="0.77" d="M437.251 267.635C437.251 267.635 450.405 356.013 457.613 389.119C465.499 425.327 495.309 546.166 495.309 546.166H516.523C516.523 546.166 496.886 428.302 492.375 392.347C487.486 353.384 477.234 267.572 477.234 267.572L437.251 267.635Z" fill="white"/>
<path d="M445.563 299.119C460.768 302.095 459.159 358.689 457.33 387.796C452.945 367.221 446.526 327.629 442.141 299.528C443.202 299.007 444.409 298.862 445.563 299.119Z" fill="#4A3AFF"/>
<path opacity="0.6" d="M445.563 299.119C460.768 302.095 459.159 358.689 457.33 387.796C452.945 367.221 446.526 327.629 442.141 299.528C443.202 299.007 444.409 298.862 445.563 299.119Z" fill="white"/>
<path d="M415.265 267.635C415.265 267.635 413.688 354.092 414.934 389.371C416.243 426.051 429.129 546.166 429.129 546.166H448.75C448.75 546.166 449.475 428.192 450.327 392.173C451.289 352.896 456.037 267.635 456.037 267.635H415.265Z" fill="#4A3AFF"/>
<path opacity="0.77" d="M415.265 267.635C415.265 267.635 413.688 354.092 414.934 389.371C416.243 426.051 429.129 546.166 429.129 546.166H448.75C448.75 546.166 449.475 428.192 450.327 392.173C451.289 352.896 456.037 267.635 456.037 267.635H415.265Z" fill="white"/>
<path d="M433.197 532.092C433.15 532.092 433.104 532.074 433.069 532.042C433.034 532.01 433.012 531.966 433.008 531.918C429.538 498.67 421.384 418.226 420.39 389.37C419.333 359.916 420.295 293.829 420.611 274.277C420.611 274.227 420.631 274.179 420.666 274.144C420.702 274.108 420.75 274.088 420.8 274.088C420.852 274.088 420.902 274.108 420.94 274.143C420.978 274.178 421.001 274.226 421.005 274.277C420.69 293.829 419.728 359.916 420.784 389.355C421.81 418.211 429.964 498.623 433.402 531.871C433.403 531.925 433.384 531.976 433.349 532.017C433.314 532.057 433.266 532.084 433.213 532.092H433.197Z" fill="#4A3AFF"/>
<path opacity="0.6" d="M433.197 532.092C433.15 532.092 433.104 532.074 433.069 532.042C433.034 532.01 433.012 531.966 433.008 531.918C429.538 498.67 421.384 418.226 420.39 389.37C419.333 359.916 420.295 293.829 420.611 274.277C420.611 274.227 420.631 274.179 420.666 274.144C420.702 274.108 420.75 274.088 420.8 274.088C420.852 274.088 420.902 274.108 420.94 274.143C420.978 274.178 421.001 274.226 421.005 274.277C420.69 293.829 419.728 359.916 420.784 389.355C421.81 418.211 429.964 498.623 433.402 531.871C433.403 531.925 433.384 531.976 433.349 532.017C433.314 532.057 433.266 532.084 433.213 532.092H433.197Z" fill="white"/>
</g>
</g>
</g>
<defs>
<clipPath id="clip0_3680_20610">
<rect width="586" height="328" fill="white"/>
</clipPath>
</defs>
</svg>
