<svg width="586" height="328" viewBox="0 0 586 328" fill="none" xmlns="http://www.w3.org/2000/svg">
<g clip-path="url(#clip0_3680_20631)">
<rect width="586" height="328" fill="white"/>
<mask id="mask0_3680_20631" style="mask-type:alpha" maskUnits="userSpaceOnUse" x="0" y="-1" width="586" height="330">
<path d="M0 -0.5H586V328.5H0V-0.5Z" fill="#C4C4C4"/>
</mask>
<g mask="url(#mask0_3680_20631)">
<rect width="586" height="329.737" transform="translate(0 -0.5)" fill="#F2F1FF"/>
<mask id="mask1_3680_20631" style="mask-type:alpha" maskUnits="userSpaceOnUse" x="0" y="-1" width="586" height="331">
<rect y="-0.5" width="586" height="329.737" fill="#F2F1FF"/>
</mask>
<g mask="url(#mask1_3680_20631)">
<rect y="-0.5" width="586" height="329.737" fill="#F2F1FF"/>
<path opacity="0.11" d="M500.304 34.7246H259.142C253.446 34.7246 248.828 39.3424 248.828 45.0387V286.079C248.828 290.851 252.696 294.719 257.468 294.719H501.978C506.75 294.719 510.618 290.851 510.618 286.079V45.0387C510.618 39.3424 506.001 34.7246 500.304 34.7246Z" fill="#4A3AFF"/>
<path d="M328.385 81.6893C328.385 78.349 331.093 75.6411 334.434 75.6411H494.332C497.672 75.6411 500.38 78.349 500.38 81.6893V277.886C500.38 279.369 499.711 280.792 498.521 281.841C497.33 282.89 495.715 283.479 494.032 283.479H334.734C333.05 283.479 331.435 282.89 330.245 281.841C329.054 280.792 328.385 279.369 328.385 277.886V81.6893Z" fill="white"/>
<path opacity="0.3" d="M500.304 34.7246H259.142C253.446 34.7246 248.828 39.3424 248.828 45.0387V59.3755H510.618V45.0387C510.618 39.3424 506.001 34.7246 500.304 34.7246Z" fill="#4A3AFF"/>
<path opacity="0.7" d="M260.814 50.6749C262.268 50.6749 263.448 49.498 263.448 48.0462C263.448 46.5944 262.268 45.4175 260.814 45.4175C259.359 45.4175 258.18 46.5944 258.18 48.0462C258.18 49.498 259.359 50.6749 260.814 50.6749Z" fill="white"/>
<path opacity="0.7" d="M274.611 48.0458C274.614 48.569 274.461 49.0812 274.172 49.5176C273.883 49.954 273.47 50.2949 272.987 50.497C272.503 50.6991 271.97 50.7534 271.456 50.653C270.941 50.5527 270.468 50.3021 270.097 49.9331C269.725 49.564 269.471 49.0932 269.368 48.5802C269.265 48.0673 269.317 47.5352 269.516 47.0515C269.716 46.5679 270.056 46.1543 270.491 45.8634C270.927 45.5724 271.44 45.417 271.964 45.417C272.311 45.4152 272.655 45.4819 272.976 45.6132C273.297 45.7444 273.589 45.9378 273.835 46.1821C274.081 46.4263 274.276 46.7167 274.41 47.0366C274.543 47.3564 274.611 47.6994 274.611 48.0458V48.0458Z" fill="white"/>
<path opacity="0.7" d="M283.114 50.6744C284.568 50.6744 285.748 49.4975 285.748 48.0457C285.748 46.5939 284.568 45.417 283.114 45.417C281.659 45.417 280.48 46.5939 280.48 48.0457C280.48 49.4975 281.659 50.6744 283.114 50.6744Z" fill="white"/>
<path opacity="0.1" d="M472.22 95.7959H356.545C354.026 95.7959 351.985 97.8338 351.985 100.348V191.108C351.985 193.622 354.026 195.66 356.545 195.66H472.22C474.739 195.66 476.781 193.622 476.781 191.108V100.348C476.781 97.8338 474.739 95.7959 472.22 95.7959Z" fill="#4A3AFF"/>
<path d="M168.61 124.859L158.546 145.93C155.219 152.958 151.962 160.028 149.065 167.029L148.025 169.644C147.873 170.045 147.831 170.128 147.72 170.474C147.609 170.82 147.526 171.096 147.443 171.484C147.077 173.137 146.804 174.809 146.625 176.492C146.237 180.103 146.015 183.922 145.876 187.754C145.599 195.433 145.53 203.305 145.433 211.094L137.837 211.938C136.1 204.075 134.84 196.115 134.066 188.1C133.65 183.963 133.456 179.806 133.484 175.648C133.492 173.399 133.649 171.153 133.955 168.924C134.025 168.343 134.163 167.679 134.302 167.043C134.441 166.406 134.676 165.562 134.829 165.037L135.785 162.09C138.377 154.3 141.399 146.871 144.573 139.552C147.748 132.233 151.144 125.052 154.803 117.899L168.61 124.859Z" fill="#FFE3D3"/>
<path d="M145.323 208.715L148.872 215.342L137.547 218.496C137.547 218.496 135.384 213.17 137.949 208.978L145.323 208.715Z" fill="#FFE3D3"/>
<path d="M153.224 224.902L142.8 225.718L137.546 218.496L148.871 215.342L153.224 224.902Z" fill="#FFE3D3"/>
<path d="M202.53 70.154C202.696 70.9564 203.251 71.5375 203.778 71.413C204.304 71.2885 204.595 70.569 204.443 69.7666C204.291 68.9641 203.722 68.383 203.195 68.5076C202.669 68.6321 202.364 69.2962 202.53 70.154Z" fill="#27266A"/>
<path d="M203.182 71.5371C204.641 73.7962 206.404 75.8446 208.421 77.6247C207.954 78.1296 207.382 78.5263 206.745 78.7868C206.108 79.0473 205.422 79.1654 204.734 79.1327L203.182 71.5371Z" fill="#E8AD8C"/>
<path d="M198.621 66.2935C198.756 66.2908 198.885 66.2363 198.981 66.1413C199.377 65.684 199.877 65.3275 200.438 65.1014C201 64.8752 201.608 64.7859 202.211 64.8408C202.338 64.8628 202.468 64.8336 202.573 64.7597C202.679 64.6857 202.75 64.5731 202.772 64.4465C202.794 64.3199 202.765 64.1897 202.691 64.0846C202.617 63.9795 202.504 63.9081 202.377 63.8861C201.607 63.7959 200.826 63.8936 200.102 64.1707C199.377 64.4478 198.731 64.8961 198.219 65.4772C198.154 65.5456 198.111 65.6313 198.094 65.7238C198.078 65.8163 198.088 65.9117 198.125 65.9982C198.162 66.0848 198.223 66.1588 198.301 66.2112C198.379 66.2636 198.471 66.2922 198.565 66.2935H198.621Z" fill="#27266A"/>
<path d="M179.603 81.457C181.058 88.8866 182.527 102.514 177.315 107.468C177.315 107.468 179.353 115.022 193.187 115.022C208.435 115.022 200.464 107.481 200.464 107.481C192.147 105.489 192.369 99.3462 193.811 93.563L179.603 81.457Z" fill="#FFE3D3"/>
<path d="M173.85 110.111C172.644 107.952 171.299 105.49 174.072 104.729C177.107 103.871 193.783 103.013 199.536 104.604C205.288 106.195 203.694 110.553 203.694 110.553L173.85 110.111Z" fill="#4A3AFF"/>
<path opacity="0.6" d="M173.85 110.111C172.644 107.952 171.299 105.49 174.072 104.729C177.107 103.871 193.783 103.013 199.536 104.604C205.288 106.195 203.694 110.553 203.694 110.553L173.85 110.111Z" fill="white"/>
<path d="M215.421 112.67C218.304 113.569 221.534 114.552 224.625 115.437C227.716 116.322 230.89 117.083 234.037 117.761C240.162 119.201 246.399 120.113 252.681 120.487C254.178 120.487 255.661 120.584 257.089 120.487H257.962C258.142 120.487 258.447 120.487 258.697 120.418C259.251 120.335 259.889 120.196 260.554 120.03C263.505 119.221 266.399 118.218 269.217 117.028C275.178 114.593 281.291 111.743 287.335 108.99L291.562 115.34C286.309 119.974 280.659 124.14 274.679 127.792C271.521 129.759 268.195 131.444 264.74 132.828C263.754 133.22 262.745 133.553 261.718 133.824C261.136 133.963 260.609 134.101 259.958 134.212L259.029 134.364L258.308 134.447C256.368 134.696 254.469 134.793 252.584 134.848C245.318 134.91 238.066 134.214 230.946 132.773C227.466 132.081 224.015 131.389 220.619 130.393C217.223 129.397 213.924 128.525 210.389 127.252L215.421 112.67Z" fill="#FFE3D3"/>
<path d="M159.073 109.778C149.537 111.95 139.889 139.815 139.889 139.815L159.531 153.871C159.531 153.871 165.075 140.908 170.412 129.563C176.068 117.719 168.832 107.537 159.073 109.778Z" fill="#4A3AFF"/>
<path opacity="0.78" d="M159.073 109.778C149.537 111.95 139.889 139.815 139.889 139.815L159.531 153.871C159.531 153.871 165.075 140.908 170.412 129.563C176.068 117.719 168.832 107.537 159.073 109.778Z" fill="white"/>
<path d="M216.128 110.29C216.128 110.29 226.968 122.52 216.724 198.145H162.262C161.888 189.843 167.141 149.098 159.074 109.778C165.098 108.613 171.191 107.841 177.316 107.467C185.025 107.017 192.755 107.017 200.465 107.467C205.751 108.003 210.988 108.947 216.128 110.29Z" fill="#4A3AFF"/>
<path opacity="0.78" d="M216.128 110.29C216.128 110.29 226.968 122.52 216.724 198.145H162.262C161.888 189.843 167.141 149.098 159.074 109.778C165.098 108.613 171.191 107.841 177.316 107.467C185.025 107.017 192.755 107.017 200.465 107.467C205.751 108.003 210.988 108.947 216.128 110.29Z" fill="white"/>
<path opacity="0.3" d="M216.128 110.29C216.128 110.29 214.909 109.958 212.926 109.501C206.938 110.124 204.027 117 205.635 124.139C206.827 129.452 214.562 136.716 221.133 142.125C220.98 115.769 216.128 110.29 216.128 110.29Z" fill="#27266A"/>
<path d="M202.78 125.897C207.645 134.308 234.245 142.499 234.245 142.499L243.172 118.619C243.172 118.619 227.925 114.469 216.101 110.318C201.477 105.074 197.471 116.655 202.78 125.897Z" fill="#4A3AFF"/>
<path opacity="0.78" d="M202.78 125.897C207.645 134.308 234.245 142.499 234.245 142.499L243.172 118.619C243.172 118.619 227.925 114.469 216.101 110.318C201.477 105.074 197.471 116.655 202.78 125.897Z" fill="white"/>
<path d="M285.602 111.3L287.293 100.716L296.691 103.4C296.691 103.4 298.078 112.822 291.23 115.603L285.602 111.3Z" fill="#FFE3D3"/>
<path d="M291.341 91.3774L299.27 98.0323L296.692 103.4L287.294 100.716L291.341 91.3774Z" fill="#FFE3D3"/>
<path d="M175.334 73.8896C177.954 83.6435 178.993 89.482 185.037 93.522C194.102 99.6234 205.386 92.6227 205.732 82.3015C206.051 73.0041 201.726 58.6291 191.247 56.6645C188.941 56.2364 186.564 56.3992 184.338 57.1378C182.113 57.8764 180.111 59.1666 178.521 60.8877C176.931 62.6087 175.805 64.7043 175.247 66.9783C174.69 69.2523 174.72 71.6302 175.334 73.8896Z" fill="#FFE3D3"/>
<path d="M198.303 44.5861C198.24 45.2425 198.03 45.8766 197.69 46.4416C197.349 47.0067 196.886 47.4883 196.334 47.8513C195.877 42.7322 193.839 37.8068 189.279 35.3994C190.027 37.5716 187.893 41.0166 184.76 44.5308C184.412 43.244 183.801 42.0429 182.966 41.0025C182.131 39.9622 181.09 39.105 179.908 38.4847C177.829 46.5231 171.175 47.8513 165.894 52.8043C164.751 53.926 163.972 55.3647 163.658 56.9337C163.344 58.5028 163.51 60.1297 164.134 61.6036C162.748 60.981 161.098 61.1332 159.906 64.2323C161.05 63.5101 162.365 63.1043 163.718 63.0563C162.775 63.9418 162.041 65.4775 162.581 68.9364C163.524 74.7887 175.57 92.1798 183.18 91.3082C191.497 90.3535 193.021 80.7379 193.215 72.0632L193.534 71.8971C199.301 68.8395 206.426 52.4861 198.303 44.5861Z" fill="#27266A"/>
<path d="M189.263 74.0554C190.305 76.3361 192.068 78.2123 194.281 79.3959C197.22 80.9177 198.856 78.6902 198.204 75.771C197.608 73.1284 195.432 69.1715 192.341 68.8533C189.25 68.5351 188.044 71.2883 189.263 74.0554Z" fill="#FFE3D3"/>
<path d="M197.414 198.145C197.414 198.145 185.854 275.817 179.505 304.926C172.574 336.748 136.021 434.356 136.021 434.356L117.682 430.994C117.682 430.994 144.99 339.363 148.954 307.86C153.265 273.617 162.261 198.2 162.261 198.2L197.414 198.145Z" fill="#4A3AFF"/>
<path opacity="0.2" d="M190.11 225.816C176.748 228.43 178.161 278.169 179.769 303.75C183.623 285.667 189.265 250.871 193.118 226.175C192.186 225.717 191.125 225.59 190.11 225.816Z" fill="#27266A"/>
<path d="M216.725 198.145C216.725 198.145 218.111 274.143 217.029 305.134C215.879 337.37 204.554 442.934 204.554 442.934H187.338C187.338 442.934 186.7 339.252 185.952 307.597C185.12 273.077 180.934 198.145 180.934 198.145H216.725Z" fill="#4A3AFF"/>
<path opacity="0.2" d="M201.683 430.468L200.935 430.385C203.971 401.179 211.151 330.508 212.024 305.175C212.953 279.22 212.107 221.222 211.83 204.066L212.579 203.983C212.856 221.139 213.701 279.165 212.773 305.162C211.899 330.536 204.719 401.248 201.683 430.468Z" fill="#27266A"/>
</g>
</g>
</g>
<defs>
<clipPath id="clip0_3680_20631">
<rect width="586" height="328" fill="white"/>
</clipPath>
</defs>
</svg>
