<svg width="586" height="328" viewBox="0 0 586 328" fill="none" xmlns="http://www.w3.org/2000/svg">
<g clip-path="url(#clip0_3680_20635)">
<rect width="586" height="328" fill="white"/>
<mask id="mask0_3680_20635" style="mask-type:alpha" maskUnits="userSpaceOnUse" x="0" y="-1" width="586" height="330">
<path d="M0 -0.5H586V328.5H0V-0.5Z" fill="#C4C4C4"/>
</mask>
<g mask="url(#mask0_3680_20635)">
<rect width="586" height="329.737" transform="translate(0 -0.5)" fill="#F2F1FF"/>
<mask id="mask1_3680_20635" style="mask-type:alpha" maskUnits="userSpaceOnUse" x="0" y="-1" width="586" height="331">
<rect y="-0.5" width="586" height="329.737" fill="#F2F1FF"/>
</mask>
<g mask="url(#mask1_3680_20635)">
<rect y="-0.5" width="586" height="329.737" fill="#F2F1FF"/>
<path d="M394.917 117.433C395.434 113.342 395.062 109.189 393.827 105.255C392.592 101.321 390.523 97.6978 387.761 94.6328C384.998 91.5678 381.607 89.1323 377.818 87.492C374.028 85.8517 369.929 85.0449 365.799 85.1266H485.022C489.153 85.0421 493.254 85.8468 497.046 87.4859C500.838 89.125 504.232 91.5601 506.996 94.6254C509.761 97.6908 511.832 101.315 513.067 105.25C514.303 109.186 514.675 113.341 514.158 117.433H394.917Z" fill="#4A3AFF"/>
<path opacity="0.6" d="M394.917 117.433C395.434 113.342 395.062 109.189 393.827 105.255C392.592 101.321 390.523 97.6978 387.761 94.6328C384.998 91.5678 381.607 89.1323 377.818 87.492C374.028 85.8517 369.929 85.0449 365.799 85.1266H485.022C489.153 85.0421 493.254 85.8468 497.046 87.4859C500.838 89.125 504.232 91.5601 506.996 94.6254C509.761 97.6908 511.832 101.315 513.067 105.25C514.303 109.186 514.675 113.341 514.158 117.433H394.917Z" fill="white"/>
<path d="M365.799 85.1265H485.021C476.181 85.312 467.707 88.6863 461.166 94.6252C454.626 100.564 450.461 108.666 449.442 117.433L439.118 220.629C438.099 229.394 433.933 237.494 427.392 243.429C420.851 249.365 412.377 252.735 403.539 252.916H349.013C344.88 253.014 340.776 252.218 336.98 250.584C333.184 248.951 329.787 246.517 327.022 243.45C324.256 240.384 322.187 236.757 320.957 232.818C319.728 228.879 319.365 224.721 319.895 220.629L330.2 117.433C331.224 108.664 335.392 100.562 341.936 94.6236C348.48 88.685 356.956 85.3115 365.799 85.1265Z" fill="#4A3AFF"/>
<path opacity="0.72" d="M365.799 85.1265H485.021C476.181 85.312 467.707 88.6863 461.166 94.6252C454.626 100.564 450.461 108.666 449.442 117.433L439.118 220.629C438.099 229.394 433.933 237.494 427.392 243.429C420.851 249.365 412.377 252.735 403.539 252.916H349.013C344.88 253.014 340.776 252.218 336.98 250.584C333.184 248.951 329.787 246.517 327.022 243.45C324.256 240.384 322.187 236.757 320.957 232.818C319.728 228.879 319.365 224.721 319.895 220.629L330.2 117.433C331.224 108.664 335.392 100.562 341.936 94.6236C348.48 88.685 356.956 85.3115 365.799 85.1265Z" fill="white"/>
<path d="M374.422 220.629C373.892 224.721 374.254 228.878 375.484 232.817C376.714 236.756 378.783 240.384 381.548 243.45C384.314 246.517 387.711 248.95 391.506 250.584C395.302 252.218 399.407 253.013 403.539 252.916H284.298C280.165 253.013 276.061 252.218 272.265 250.584C268.469 248.95 265.072 246.517 262.307 243.45C259.541 240.384 257.472 236.756 256.243 232.817C255.013 228.878 254.65 224.721 255.181 220.629H374.422Z" fill="#4A3AFF"/>
<path opacity="0.6" d="M374.422 220.629C373.892 224.721 374.254 228.878 375.484 232.817C376.714 236.756 378.783 240.384 381.548 243.45C384.314 246.517 387.711 248.95 391.506 250.584C395.302 252.218 399.407 253.013 403.539 252.916H284.298C280.165 253.013 276.061 252.218 272.265 250.584C268.469 248.95 265.072 246.517 262.307 243.45C259.541 240.384 257.472 236.756 256.243 232.817C255.013 228.878 254.65 224.721 255.181 220.629H374.422Z" fill="white"/>
<path d="M345.859 153.689H426.539C427.232 153.671 427.895 153.404 428.408 152.938C428.92 152.472 429.248 151.838 429.33 151.151V150.883C429.368 150.562 429.337 150.236 429.239 149.928C429.14 149.619 428.977 149.335 428.76 149.095C428.543 148.854 428.276 148.663 427.979 148.534C427.682 148.405 427.36 148.341 427.036 148.345H346.375C345.684 148.364 345.023 148.631 344.514 149.097C344.005 149.564 343.681 150.198 343.603 150.883V151.151C343.565 151.469 343.595 151.791 343.692 152.097C343.788 152.403 343.947 152.685 344.161 152.925C344.374 153.164 344.635 153.356 344.928 153.488C345.221 153.62 345.538 153.688 345.859 153.689V153.689Z" fill="white"/>
<path d="M344.157 170.348H424.856C425.549 170.33 426.213 170.064 426.725 169.598C427.238 169.132 427.565 168.497 427.647 167.81V167.543C427.686 167.222 427.654 166.896 427.556 166.587C427.458 166.279 427.295 165.995 427.077 165.755C426.86 165.514 426.594 165.323 426.296 165.194C425.999 165.064 425.677 165 425.353 165.005H344.712C344.019 165.023 343.355 165.29 342.843 165.755C342.33 166.221 342.003 166.856 341.92 167.543V167.81C341.88 168.127 341.907 168.45 342.001 168.755C342.095 169.061 342.253 169.344 342.464 169.584C342.676 169.824 342.936 170.016 343.228 170.148C343.52 170.28 343.837 170.348 344.157 170.348V170.348Z" fill="white"/>
<path d="M342.514 187.006H423.212C423.902 186.989 424.564 186.725 425.076 186.263C425.588 185.801 425.917 185.171 426.004 184.487V184.201C426.045 183.88 426.016 183.555 425.92 183.246C425.824 182.938 425.663 182.654 425.447 182.413C425.231 182.172 424.966 181.981 424.67 181.851C424.373 181.722 424.052 181.658 423.728 181.663H343.049C342.356 181.681 341.692 181.947 341.18 182.413C340.667 182.879 340.34 183.514 340.258 184.201V184.487C340.22 184.804 340.25 185.126 340.346 185.431C340.442 185.736 340.602 186.017 340.816 186.255C341.029 186.493 341.291 186.683 341.584 186.813C341.876 186.942 342.193 187.008 342.514 187.006V187.006Z" fill="white"/>
<path d="M359.452 203.665H421.491C422.183 203.652 422.846 203.39 423.359 202.927C423.872 202.464 424.2 201.832 424.282 201.147V200.86C424.324 200.541 424.296 200.216 424.199 199.909C424.103 199.601 423.942 199.318 423.726 199.078C423.509 198.839 423.244 198.649 422.947 198.522C422.651 198.395 422.33 198.333 422.007 198.342H360.045C359.353 198.355 358.69 198.617 358.177 199.08C357.664 199.543 357.336 200.175 357.253 200.86V201.147C357.213 201.46 357.239 201.778 357.331 202.08C357.423 202.382 357.577 202.661 357.785 202.899C357.993 203.138 358.249 203.329 358.536 203.461C358.824 203.593 359.136 203.663 359.452 203.665Z" fill="white"/>
<path d="M349.185 120.371H429.884C430.577 120.353 431.24 120.086 431.753 119.62C432.265 119.154 432.593 118.52 432.675 117.833V117.546C432.713 117.228 432.683 116.904 432.585 116.598C432.488 116.292 432.326 116.01 432.111 115.771C431.895 115.533 431.631 115.343 431.336 115.215C431.041 115.086 430.722 115.023 430.4 115.028H349.72C349.03 115.045 348.369 115.309 347.857 115.771C347.345 116.233 347.016 116.863 346.929 117.546V117.833C346.891 118.151 346.922 118.474 347.018 118.779C347.114 119.085 347.273 119.367 347.487 119.607C347.7 119.847 347.961 120.039 348.254 120.17C348.547 120.302 348.864 120.37 349.185 120.371V120.371Z" fill="white"/>
<path d="M347.523 137.03H428.279C428.97 137.012 429.631 136.744 430.141 136.278C430.65 135.812 430.973 135.178 431.052 134.492V134.225C431.089 133.905 431.059 133.581 430.962 133.274C430.864 132.967 430.703 132.684 430.488 132.444C430.273 132.204 430.009 132.012 429.714 131.882C429.419 131.751 429.099 131.685 428.776 131.687H347.982C347.289 131.705 346.626 131.971 346.113 132.437C345.601 132.903 345.273 133.538 345.191 134.225V134.492C345.152 134.817 345.184 135.146 345.285 135.457C345.385 135.769 345.552 136.054 345.773 136.295C345.995 136.536 346.266 136.727 346.568 136.854C346.87 136.98 347.196 137.041 347.523 137.03V137.03Z" fill="white"/>
<path d="M148.086 136.477C143.268 144.931 138.412 153.651 133.747 162.334C129.082 171.016 124.551 179.737 120.536 188.477C119.581 190.633 118.625 192.827 117.688 194.984L117.038 196.606L116.694 197.407V197.617V197.407C116.846 196.632 116.846 195.835 116.694 195.06C116.346 193.576 115.536 192.24 114.38 191.243C113.839 190.751 113.181 190.403 112.469 190.232C112.22 190.232 112.296 190.232 112.469 190.232C113.15 190.404 113.85 190.487 114.552 190.48C116.668 190.476 118.781 190.342 120.881 190.079C130 188.934 139.903 186.74 149.558 184.717L153.535 194.945C144.323 200.112 134.563 204.24 124.437 207.253C121.616 208.085 118.733 208.685 115.814 209.047C114.001 209.275 112.17 209.332 110.346 209.219C109.092 209.114 107.85 208.89 106.637 208.551C104.722 208.019 102.947 207.074 101.437 205.784C99.3109 203.953 97.8521 201.47 97.2885 198.724C96.8994 196.709 96.9385 194.635 97.4032 192.636L97.6709 191.587L97.8238 191.072V190.843L98.1297 189.87L98.7606 187.961C99.5827 185.347 100.539 182.924 101.437 180.424C105.261 170.616 109.563 161.246 114.17 152.068C118.778 142.889 123.729 134.016 129.082 125.104L148.086 136.477Z" fill="#FFE3D3"/>
<path d="M204.599 71.293C204.294 72.4379 204.599 73.5256 205.422 73.7164C206.244 73.9073 207.008 73.1249 207.333 71.98C207.658 70.835 207.333 69.7664 206.511 69.5756C205.689 69.3848 204.886 70.1481 204.599 71.293Z" fill="#27266A"/>
<path d="M204.561 73.4878C205.044 77.3264 206.048 81.0818 207.544 84.6509C206.62 85.0142 205.627 85.1701 204.635 85.1074C203.644 85.0448 202.679 84.7651 201.808 84.2883L204.561 73.4878Z" fill="#E8AD8C"/>
<path d="M202.02 63.8891C201.94 63.8513 201.869 63.7981 201.809 63.7326C201.75 63.6671 201.705 63.5905 201.676 63.5074C201.641 63.4235 201.624 63.3337 201.625 63.2431C201.626 63.1525 201.644 63.0629 201.68 62.9796C201.715 62.8962 201.767 62.8207 201.832 62.7574C201.897 62.694 201.974 62.6441 202.058 62.6105C203.077 62.1864 204.182 62.0103 205.282 62.0965C206.382 62.1828 207.446 62.529 208.386 63.1067C208.534 63.217 208.632 63.3805 208.661 63.5623C208.689 63.744 208.646 63.9298 208.539 64.0799C208.432 64.2258 208.272 64.3237 208.093 64.3523C207.914 64.3809 207.731 64.3379 207.583 64.2325V64.2325C206.833 63.7876 205.988 63.5262 205.118 63.4698C204.247 63.4134 203.375 63.5636 202.574 63.9081C202.485 63.9435 202.39 63.9601 202.295 63.9568C202.2 63.9535 202.106 63.9305 202.02 63.8891V63.8891Z" fill="#27266A"/>
<path d="M169.365 77.457C166.363 88.3339 167.663 103.638 158.754 110.775C158.754 110.775 159.557 121.632 179.46 121.632C201.369 121.632 192.078 110.775 192.078 110.775C180.607 107.931 182.729 99.0772 186.457 90.7573L169.365 77.457Z" fill="#FFE3D3"/>
<path d="M157.971 113.179C156.384 111.08 154.645 108.695 158.258 107.95C162.215 107.111 183.896 106.271 191.371 107.817C198.846 109.362 196.743 113.541 196.743 113.541L157.971 113.179Z" fill="#4A3AFF"/>
<path d="M134.742 114.075C121.015 117.224 112.68 142.164 112.68 142.164L136.233 168.421C141.625 160.052 146.589 151.415 151.108 142.546C159.176 125.448 148.775 110.869 134.742 114.075Z" fill="#4A3AFF"/>
<path opacity="0.2" d="M140.879 137.509C137.056 142.928 133.538 150.866 137.495 166.285C140.592 161.323 143.632 156.247 146.252 151.649C146.959 138.978 144.531 133.139 140.879 137.509Z" fill="#211F54"/>
<path d="M220.354 123.712C223.871 137.07 227.389 169.223 217.658 241.22H139.272C138.737 229.218 146.289 170.616 134.684 114.075C143.347 112.41 152.109 111.308 160.915 110.774C172.013 110.135 183.139 110.135 194.238 110.774C199.254 111.255 204.24 112.02 209.169 113.064C211.846 113.615 214.313 114.905 216.291 116.788C218.268 118.671 219.676 121.07 220.354 123.712V123.712Z" fill="#4A3AFF"/>
<path opacity="0.2" d="M220.889 125.81C207.946 113.979 198.387 113.407 195.787 126.402C190.338 153.632 222.438 182.962 223.374 183.801C225.038 153.022 223.088 135.485 220.889 125.81Z" fill="#211F54"/>
<path d="M212.706 119.113C216.912 123.769 220.87 128.502 224.904 133.234C228.938 137.966 232.838 142.775 236.681 147.66C240.524 152.545 244.328 157.449 248.152 162.487C251.975 167.525 255.57 172.62 259.126 178.039L252.855 173.975C256.009 174.776 259.183 175.635 262.414 176.303C265.645 176.971 268.972 177.658 272.298 178.211C275.625 178.764 279.009 179.337 282.412 179.852C285.815 180.367 289.275 180.806 292.545 181.302L293.233 192.255C289.409 193.114 285.911 193.591 282.221 194.164C278.531 194.736 274.879 194.812 271.17 194.946C263.673 195.178 256.169 194.757 248.744 193.687L245.265 193.171L242.569 189.622C239.032 184.966 235.151 180.31 231.328 175.635L219.57 161.686L195.825 133.749L212.706 119.113Z" fill="#FFE3D3"/>
<path d="M339.614 87.5326C330.121 85.3697 320.165 86.6852 311.563 91.2392C302.961 95.7931 296.286 103.282 292.755 112.339C285.892 130.792 295.738 149.645 314.741 154.435C324.234 156.598 334.19 155.282 342.793 150.728C351.395 146.174 358.07 138.686 361.601 129.628C363.298 125.444 364.065 120.942 363.848 116.433C363.631 111.924 362.436 107.516 360.346 103.513C358.255 99.5106 355.319 96.0087 351.739 93.2495C348.16 90.4903 344.023 88.5398 339.614 87.5326V87.5326ZM316.672 149.092C312.962 148.242 309.481 146.599 306.469 144.276C303.457 141.953 300.986 139.006 299.226 135.636C297.467 132.267 296.461 128.557 296.278 124.763C296.095 120.968 296.739 117.178 298.166 113.656C301.149 106.043 306.771 99.7516 314.01 95.9272C321.248 92.1029 329.622 90.9997 337.607 92.8184C341.315 93.6701 344.795 95.3147 347.804 97.6387C350.814 99.9627 353.283 102.911 355.041 106.28C356.798 109.648 357.803 113.358 357.984 117.151C358.166 120.945 357.522 124.733 356.094 128.254C353.11 135.853 347.496 142.133 340.271 145.956C333.045 149.779 324.687 150.891 316.711 149.092H316.672Z" fill="#27266A"/>
<path opacity="0.3" d="M317.591 146.801C314.196 146.022 311.01 144.517 308.253 142.39C305.497 140.263 303.236 137.565 301.625 134.481C300.015 131.397 299.094 128.001 298.926 124.528C298.758 121.054 299.347 117.585 300.652 114.361C303.386 107.388 308.538 101.626 315.169 98.1235C321.801 94.6214 329.472 93.612 336.786 95.279C340.183 96.0563 343.371 97.5597 346.13 99.6855C348.889 101.811 351.154 104.509 352.768 107.592C354.381 110.676 355.306 114.072 355.478 117.546C355.65 121.021 355.065 124.492 353.763 127.719C351.028 134.7 345.871 140.468 339.231 143.971C332.591 147.474 324.911 148.478 317.591 146.801V146.801Z" fill="white"/>
<g opacity="0.5">
<path opacity="0.5" d="M336.766 95.1658L336.269 95.0513L300.805 113.771L300.652 114.362C298.554 119.759 298.405 125.717 300.231 131.212L350.838 104.497C347.383 99.8421 342.405 96.5409 336.766 95.1658V95.1658Z" fill="white"/>
<path opacity="0.5" d="M352.673 107.34L301.57 134.322C302.464 136.085 303.589 137.721 304.915 139.188L354.757 112.855C354.306 110.934 353.606 109.08 352.673 107.34V107.34Z" fill="white"/>
</g>
<path d="M316.673 158.079L310.631 156.552C310.418 156.502 310.219 156.406 310.046 156.272C309.873 156.138 309.731 155.968 309.63 155.775C309.528 155.581 309.47 155.368 309.458 155.15C309.446 154.932 309.481 154.714 309.561 154.51C309.722 154.063 310.044 153.692 310.465 153.47C310.886 153.247 311.375 153.19 311.836 153.308L317.877 154.835C318.09 154.885 318.29 154.981 318.462 155.115C318.635 155.249 318.777 155.419 318.879 155.612C318.98 155.806 319.039 156.019 319.051 156.237C319.063 156.455 319.028 156.673 318.948 156.877V156.877C318.787 157.324 318.464 157.695 318.043 157.917C317.623 158.139 317.134 158.197 316.673 158.079Z" fill="#27266A"/>
<path d="M316.844 155.426C316.462 158.078 315.907 160.674 315.277 163.269C314.646 165.864 313.938 168.402 313.174 170.902C312.409 173.401 311.568 175.977 310.688 178.534C309.809 181.091 309.809 183.801 305.66 185.499C304.985 185.712 304.269 185.766 303.569 185.657C302.869 185.548 302.204 185.278 301.626 184.87C301.431 184.723 301.257 184.549 301.11 184.355C298.816 181.034 300.938 178.821 301.664 176.264C302.391 173.707 303.672 171.302 304.781 168.841C305.889 166.379 307.017 163.917 308.26 161.494C309.503 159.071 310.803 156.647 312.294 154.281C312.69 153.925 313.181 153.692 313.707 153.61C314.234 153.529 314.773 153.603 315.257 153.823C316.29 154.166 316.921 154.834 316.844 155.426Z" fill="#27266A"/>
<path d="M289.18 192.598L299.963 193.552L297.784 176.798C297.784 176.798 289.505 176.951 285.376 182.694L289.18 192.598Z" fill="#FFE3D3"/>
<path d="M314.148 189.622L310.535 178.783L297.706 176.779L299.886 193.553L314.148 189.622Z" fill="#FFE3D3"/>
<path d="M194.028 125.487C188.388 144.893 218.002 171.609 218.002 171.609L244.596 145.619C244.596 145.619 235.82 134.704 229.664 127.51C212.4 107.454 198.54 110.049 194.028 125.487Z" fill="#4A3AFF"/>
<path opacity="0.72" fill-rule="evenodd" clip-rule="evenodd" d="M223.959 165.785C223.765 184.021 222.079 208.508 217.657 241.22H139.272C139.153 238.548 139.434 233.566 139.816 226.812C140.664 211.82 142.005 188.095 140.553 161.507C139.145 163.831 137.705 166.136 136.233 168.421L112.679 142.164C112.679 142.164 120.992 117.291 134.686 114.088L134.684 114.075C134.857 114.042 135.03 114.009 135.203 113.976C135.36 113.944 135.517 113.915 135.673 113.887C144.013 112.327 152.443 111.287 160.914 110.774C172.013 110.134 183.139 110.134 194.237 110.774C199.254 111.255 204.239 112.02 209.169 113.064C210.25 113.286 211.298 113.63 212.293 114.084C217.426 115.821 223.315 120.133 229.664 127.509C235.82 134.703 244.595 145.618 244.595 145.618L223.959 165.785Z" fill="white"/>
<path d="M167.013 59.1949C164.299 73.4493 161.985 81.6547 167.262 90.6615C175.177 104.21 194.181 102.111 201.102 89.0204C207.334 77.1704 210.661 55.8364 198.368 46.7724C195.657 44.7534 192.474 43.4607 189.121 43.0177C185.768 42.5746 182.357 42.9959 179.214 44.2414C176.07 45.4869 173.299 47.515 171.163 50.1326C169.027 52.7502 167.599 55.8701 167.013 59.1949V59.1949Z" fill="#FFE3D3"/>
<path d="M191.677 71.6361C194.66 70.4721 214.409 45.3408 171.718 45.0355C153.135 44.9019 155.18 81.6925 168.334 88.9246C181.487 96.1568 194.832 81.2917 191.677 71.6361Z" fill="#27266A"/>
<path d="M167.416 49.4817C191.543 59.1945 215.326 60.6066 220.852 47.2872C225.211 36.792 211.923 44.444 211.923 44.444C211.923 44.444 219.704 32.9946 205.958 32.6321C192.212 32.2695 198.789 40.265 198.789 40.265C198.789 40.265 157.264 28.3577 167.416 49.4817Z" fill="#27266A"/>
<path d="M167.434 45.3418C167.434 45.3418 160.418 44.9029 158.754 51.0664C160.819 48.6812 163.343 46.6775 165.082 48.5285C167.587 46.6012 167.434 45.3418 167.434 45.3418Z" fill="#27266A"/>
<path d="M189.209 69.8045C188.503 72.7851 188.792 75.914 190.031 78.7159C191.713 82.3797 194.963 81.4637 196.531 78.1434C197.927 75.1666 198.768 69.6709 196.11 67.0948C193.453 64.5187 190.126 66.2361 189.209 69.8045Z" fill="#FFE3D3"/>
<path d="M189.899 241.22C189.899 241.22 173.266 352.985 164.146 394.851C154.147 440.667 103.216 587.6 103.216 587.6L76.9856 581.876C76.9856 581.876 114.477 444.255 120.193 398.877C126.368 349.607 139.312 241.086 139.312 241.086L189.899 241.22Z" fill="#4A3AFF"/>
<path opacity="0.3" d="M179.383 281.045C160.15 284.861 162.177 356.362 164.509 393.172C170.054 367.163 178.16 317.091 183.628 281.56C182.31 280.92 180.816 280.738 179.383 281.045V281.045Z" fill="#27266A"/>
<path d="M217.695 241.22C217.695 241.22 219.607 350.561 218.116 395.156C216.452 441.545 200.221 593.42 200.221 593.42H175.367C175.367 593.42 174.449 444.254 173.36 398.782C172.155 349.168 166.133 241.296 166.133 241.296L217.695 241.22Z" fill="#4A3AFF"/>
</g>
</g>
</g>
<defs>
<clipPath id="clip0_3680_20635">
<rect width="586" height="328" fill="white"/>
</clipPath>
</defs>
</svg>
