<svg width="586" height="328" viewBox="0 0 586 328" fill="none" xmlns="http://www.w3.org/2000/svg">
<g clip-path="url(#clip0_3680_20645)">
<rect width="586" height="328" fill="white"/>
<mask id="mask0_3680_20645" style="mask-type:alpha" maskUnits="userSpaceOnUse" x="0" y="-1" width="586" height="330">
<path d="M0 -0.5H586V328.5H0V-0.5Z" fill="#C4C4C4"/>
</mask>
<g mask="url(#mask0_3680_20645)">
<rect width="586" height="329.737" transform="translate(0 -0.5)" fill="#F2F1FF"/>
<mask id="mask1_3680_20645" style="mask-type:alpha" maskUnits="userSpaceOnUse" x="0" y="-1" width="586" height="331">
<rect y="-0.5" width="586" height="329.737" fill="#F2F1FF"/>
</mask>
<g mask="url(#mask1_3680_20645)">
<rect y="-0.5" width="586" height="329.737" fill="#F2F1FF"/>
<path opacity="0.1" d="M250.518 197.734C253.988 197.734 256.802 194.925 256.802 191.461C256.802 187.996 253.988 185.188 250.518 185.188C247.047 185.188 244.233 187.996 244.233 191.461C244.233 194.925 247.047 197.734 250.518 197.734Z" fill="#3324D5"/>
<path d="M252.978 196.433C256.448 196.433 259.262 193.624 259.262 190.16C259.262 186.696 256.448 183.887 252.978 183.887C249.507 183.887 246.693 186.696 246.693 190.16C246.693 193.624 249.507 196.433 252.978 196.433Z" fill="white"/>
<path opacity="0.1" d="M365.289 289.493H332.353V362.397H365.289V289.493Z" fill="#3324D5"/>
<path d="M406.318 278.739C410.326 278.739 413.574 275.497 413.574 271.497C413.574 267.497 410.326 264.254 406.318 264.254C402.311 264.254 399.062 267.497 399.062 271.497C399.062 275.497 402.311 278.739 406.318 278.739Z" fill="white"/>
<path d="M441.37 276.825C441.372 278.26 440.948 279.665 440.15 280.86C439.352 282.055 438.217 282.986 436.888 283.537C435.56 284.088 434.097 284.232 432.686 283.953C431.275 283.673 429.979 282.982 428.962 281.967C427.944 280.951 427.252 279.658 426.972 278.249C426.692 276.841 426.837 275.381 427.388 274.055C427.94 272.729 428.873 271.596 430.071 270.8C431.268 270.003 432.675 269.58 434.113 269.582C436.038 269.582 437.884 270.345 439.244 271.703C440.605 273.062 441.37 274.904 441.37 276.825V276.825Z" fill="white"/>
<path d="M436.499 137.449C436.302 140.898 435.884 144.065 435.416 147.355C434.949 150.645 434.273 153.837 433.559 157.053C432.095 163.615 429.922 169.998 427.078 176.092C426.074 178.008 424.693 179.703 423.019 181.076C421.644 182.244 420.181 183.302 418.641 184.243C415.768 186 412.772 187.546 409.675 188.871C403.664 191.443 397.464 193.548 391.129 195.168L389.604 190.614C392.432 189.386 395.335 188.024 398.139 186.637C400.943 185.25 403.747 183.85 406.428 182.328C409.079 180.878 411.638 179.267 414.09 177.504C415.22 176.695 416.289 175.805 417.288 174.84C418.052 174.142 418.682 173.31 419.145 172.385C420.269 169.639 421.234 166.832 422.035 163.976C422.822 161.042 423.548 158.084 424.163 155.077C424.778 152.069 425.27 149.025 425.713 145.968C426.155 142.912 426.512 139.83 426.783 136.884L436.499 137.449Z" fill="#FFE3D3"/>
<path d="M429.87 125.922C425.946 126.917 423.204 143.034 423.204 143.034L434.014 150.4C434.014 150.4 444.382 134.147 441.393 129.85C438.22 125.272 435.601 124.412 429.87 125.922Z" fill="#4A3AFF"/>
<path opacity="0.5" d="M429.87 125.922C425.946 126.917 423.204 143.034 423.204 143.034L434.014 150.4C434.014 150.4 444.382 134.147 441.393 129.85C438.22 125.272 435.601 124.412 429.87 125.922Z" fill="#4A3AFF"/>
<path d="M430.226 129.47L427.213 145.711L433.288 149.823L430.226 129.47Z" fill="#4A3AFF"/>
<path opacity="0.7" d="M430.226 129.47L427.213 145.711L433.288 149.823L430.226 129.47Z" fill="white"/>
<path d="M391.83 190.369L385.078 183.543L384.193 193.167C384.193 193.167 389.247 196.58 392.802 194.751L391.83 190.369Z" fill="#FFE3D3"/>
<path d="M377.133 182.524L376.825 190.613L384.192 193.167L385.078 183.543L377.133 182.524Z" fill="#FFE3D3"/>
<path d="M429.869 125.922C429.869 125.922 425.343 127.518 434.42 183.261H473.075C472.423 167.56 472.411 157.875 479.925 125.64C474.517 124.518 469.033 123.792 463.519 123.467C457.672 123.043 451.803 123.043 445.956 123.467C438.417 124.13 429.869 125.922 429.869 125.922Z" fill="#4A3AFF"/>
<path opacity="0.5" d="M429.869 125.922C429.869 125.922 425.343 127.518 434.42 183.261H473.075C472.423 167.56 472.411 157.875 479.925 125.64C474.517 124.518 469.033 123.792 463.519 123.467C457.672 123.043 451.803 123.043 445.956 123.467C438.417 124.13 429.869 125.922 429.869 125.922Z" fill="#4A3AFF"/>
<path d="M451.676 127.469L455.169 134.589C455.169 134.589 469.816 130.121 467.898 123.688L462.978 123.124L451.676 127.469Z" fill="#4A3AFF"/>
<path opacity="0.6" d="M451.676 127.469L455.169 134.589C455.169 134.589 469.816 130.121 467.898 123.688L462.978 123.124L451.676 127.469Z" fill="white"/>
<path d="M451.405 126.806L446.485 134.073C446.485 134.073 436.056 129.556 443.251 123.48L446.313 123.124L451.405 126.806Z" fill="#4A3AFF"/>
<path opacity="0.6" d="M451.405 126.806L446.485 134.073C446.485 134.073 436.056 129.556 443.251 123.48L446.313 123.124L451.405 126.806Z" fill="white"/>
<path d="M467.111 74.3648C471.624 70.0316 467.295 49.6665 479.176 56.4058C494.279 64.9986 504.032 53.7543 498.989 49.4824C509.591 50.2312 508.558 62.2735 504.142 68.7426C492.938 85.204 470.333 69.5528 470.198 77.9124C470.063 86.272 467.111 74.3648 467.111 74.3648Z" fill="#27266A"/>
<path d="M460.592 71.4312C465.77 67.3434 483.456 70.7437 471.329 87.2051L460.592 71.4312Z" fill="#4A3AFF"/>
<path opacity="0.3" d="M460.592 71.4312C465.77 67.3434 483.456 70.7437 471.329 87.2051L460.592 71.4312Z" fill="#27266A"/>
<path d="M463.323 79.0786C478.401 81.325 479.459 105.778 456.054 109.571L463.323 79.0786Z" fill="#27266A"/>
<path d="M461.773 103.716C460.666 109.35 459.559 119.674 463.519 123.442C463.519 123.442 461.97 129.151 451.479 129.151C439.943 129.151 445.957 123.442 445.957 123.442C452.254 121.933 452.106 117.305 450.999 112.898L461.773 103.716Z" fill="#FFE3D3"/>
<path d="M457.382 107.509L450.999 112.935C451.279 113.954 451.46 114.998 451.54 116.053C454 115.697 457.259 113.057 457.517 110.553C457.658 109.539 457.613 108.507 457.382 107.509Z" fill="#E8AD8C"/>
<path d="M437.975 97.1852C432.773 90.4951 425.996 73.2358 446.277 71.5786L437.975 97.1852Z" fill="#27266A"/>
<path d="M461.392 89.3285C462.622 98.6824 463.359 102.611 459.621 108.257C454 116.764 442.218 116.261 438.209 107.472C434.58 99.5662 433.154 85.609 441.48 80.1587C443.312 78.9477 445.423 78.2243 447.614 78.057C449.805 77.8897 452.002 78.2842 453.997 79.203C455.992 80.1217 457.719 81.5343 459.013 83.3064C460.307 85.0786 461.126 87.1516 461.392 89.3285V89.3285Z" fill="#FFE3D3"/>
<path d="M434.457 183.211C434.457 183.211 426.955 256.386 427.57 285.356C428.222 315.492 439.29 384.222 439.29 384.222H452.155C452.155 384.222 450.113 317.247 451.257 287.663C452.487 255.391 462.769 183.211 462.769 183.211H434.457Z" fill="#4A3AFF"/>
<path opacity="0.6" d="M434.457 183.211C434.457 183.211 426.955 256.386 427.57 285.356C428.222 315.492 439.29 384.222 439.29 384.222H452.155C452.155 384.222 450.113 317.247 451.257 287.663C452.487 255.391 462.769 183.211 462.769 183.211H434.457Z" fill="white"/>
<path d="M451.098 201.416C441.603 220.48 449.191 255.257 452.549 268.195C454.271 248.763 457.173 225.01 459.436 207.566C457.997 197.697 455.476 192.627 451.098 201.416Z" fill="#4A3AFF"/>
<path opacity="0.4" d="M451.098 201.416C441.603 220.48 449.191 255.257 452.549 268.195C454.271 248.763 457.173 225.01 459.436 207.566C457.997 197.697 455.476 192.627 451.098 201.416Z" fill="white"/>
<path d="M444.628 183.212C444.628 183.212 453.385 259.32 460.001 283.711C467.848 312.718 516.576 351.742 516.576 351.742L526.476 343.345C526.476 343.345 491.13 300.958 485.128 285.65C472.312 253.047 483.283 204.46 473.038 183.187L444.628 183.212Z" fill="#4A3AFF"/>
<path opacity="0.6" d="M444.628 183.212C444.628 183.212 453.385 259.32 460.001 283.711C467.848 312.718 516.576 351.742 516.576 351.742L526.476 343.345C526.476 343.345 491.13 300.958 485.128 285.65C472.312 253.047 483.283 204.46 473.038 183.187L444.628 183.212Z" fill="white"/>
<path d="M447.863 94.6688C448.011 95.4176 447.728 96.1051 447.236 96.2033C446.744 96.3015 446.228 95.7613 446.08 94.9757C445.933 94.1901 446.215 93.5395 446.707 93.4413C447.199 93.3431 447.716 93.9078 447.863 94.6688Z" fill="#27266A"/>
<path d="M439.377 96.3383C439.525 97.0871 439.242 97.7745 438.75 97.8727C438.258 97.9709 437.742 97.4308 437.594 96.6452C437.446 95.8595 437.717 95.2089 438.209 95.1107C438.701 95.0125 439.205 95.5772 439.377 96.3383Z" fill="#27266A"/>
<path d="M438.417 95.1474L436.499 94.9756C436.499 94.9756 437.704 96.2031 438.417 95.1474Z" fill="#27266A"/>
<path d="M441.836 97.1851C441.504 99.0314 440.92 100.824 440.102 102.513C440.538 102.713 441.012 102.817 441.492 102.817C441.972 102.817 442.446 102.713 442.882 102.513L441.836 97.1851Z" fill="#E8AD8C"/>
<path d="M446.092 104.931C446.034 104.931 445.977 104.908 445.936 104.866C445.894 104.825 445.871 104.769 445.871 104.71C445.871 104.652 445.894 104.595 445.936 104.554C445.977 104.512 446.034 104.489 446.092 104.489C447.034 104.325 447.923 103.942 448.688 103.37C449.453 102.798 450.072 102.055 450.495 101.199C450.507 101.172 450.523 101.147 450.544 101.126C450.565 101.105 450.59 101.088 450.617 101.077C450.645 101.066 450.674 101.06 450.704 101.06C450.734 101.06 450.763 101.065 450.79 101.077C450.818 101.088 450.843 101.104 450.864 101.125C450.885 101.146 450.902 101.171 450.913 101.198C450.925 101.226 450.93 101.255 450.931 101.285C450.931 101.314 450.925 101.344 450.913 101.371C450.468 102.3 449.805 103.108 448.981 103.728C448.157 104.348 447.196 104.76 446.178 104.931H446.092Z" fill="#27266A"/>
<path d="M438.146 83.4737C438.146 83.4737 446.153 95.5896 460.911 97.1854C460.911 97.1854 476.149 83.3755 466.778 73.8006C451.601 58.309 433.497 78.0479 438.146 83.4737Z" fill="#27266A"/>
<path d="M464.601 96.5595C464.581 97.4612 464.382 98.3499 464.015 99.1739C463.647 99.998 463.119 100.741 462.461 101.359C460.69 103.016 458.698 101.703 458.255 99.4565C457.862 97.4311 458.255 94.1412 460.531 93.3188C461.021 93.1542 461.546 93.115 462.056 93.2047C462.566 93.2945 463.045 93.5104 463.45 93.8327C463.855 94.155 464.173 94.5735 464.374 95.0498C464.575 95.5261 464.653 96.0452 464.601 96.5595Z" fill="#FFE3D3"/>
<path d="M449.806 91.4278C449.693 91.4291 449.584 91.3898 449.498 91.3173C449.086 90.9298 448.589 90.6445 448.046 90.4846C447.504 90.3246 446.931 90.2945 446.374 90.3966C446.317 90.4132 446.257 90.4181 446.197 90.4109C446.138 90.4038 446.081 90.3847 446.029 90.3549C445.978 90.3251 445.932 90.2851 445.897 90.2374C445.861 90.1898 445.835 90.1354 445.821 90.0775C445.791 89.9619 445.807 89.8392 445.867 89.7358C445.927 89.6324 446.025 89.5567 446.14 89.5251C446.842 89.3816 447.568 89.4081 448.257 89.6025C448.946 89.7969 449.578 90.1534 450.101 90.6421C450.185 90.7271 450.232 90.8418 450.232 90.9613C450.232 91.0808 450.185 91.1954 450.101 91.2805C450.025 91.3657 449.919 91.4185 449.806 91.4278V91.4278Z" fill="#27266A"/>
<path d="M434.63 93.1834C434.573 93.1961 434.514 93.1961 434.457 93.1834C434.402 93.1619 434.351 93.1293 434.308 93.0877C434.265 93.0461 434.231 92.9962 434.208 92.9412C434.185 92.8861 434.174 92.827 434.174 92.7673C434.175 92.7077 434.187 92.6488 434.211 92.5942C434.47 91.9281 434.886 91.3339 435.423 90.8618C435.96 90.3896 436.604 90.0533 437.298 89.8813C437.356 89.8689 437.415 89.8684 437.473 89.8798C437.531 89.8912 437.585 89.9143 437.634 89.9477C437.682 89.981 437.723 90.0239 437.754 90.0737C437.786 90.1236 437.806 90.1792 437.815 90.2372C437.827 90.2954 437.828 90.3554 437.817 90.4138C437.805 90.4721 437.782 90.5276 437.749 90.5769C437.716 90.6262 437.673 90.6682 437.623 90.7006C437.573 90.7329 437.517 90.7549 437.458 90.7651C436.905 90.9068 436.394 91.1777 435.966 91.5555C435.538 91.9333 435.207 92.4071 434.999 92.9379C434.964 93.0076 434.912 93.0669 434.847 93.11C434.782 93.1531 434.707 93.1784 434.63 93.1834Z" fill="#27266A"/>
<path d="M493.492 172.974V171.882C493.492 170.409 493.283 168.997 493.135 167.573C492.39 162.06 491.214 156.613 489.618 151.283C488.073 146.004 486.234 140.816 484.108 135.743L475.044 139.425C476.876 144.164 478.61 149.16 480.197 154.07C480.959 156.525 481.685 158.98 482.312 161.435C482.939 163.89 483.542 166.345 483.972 168.801L484.231 170.433C483.382 170.151 482.509 169.844 481.623 169.476C476.974 167.585 472.227 165.13 467.541 162.773L464.823 166.738C468.993 170.353 473.489 173.575 478.253 176.362C479.534 177.102 480.861 177.758 482.226 178.326C482.992 178.658 483.781 178.933 484.587 179.149C485.068 179.284 485.557 179.387 486.051 179.456C486.708 179.539 487.374 179.539 488.031 179.456C489.116 179.36 490.154 178.97 491.032 178.326C492.124 177.516 492.895 176.346 493.209 175.024C493.395 174.357 493.49 173.667 493.492 172.974V172.974ZM486.875 171.145H487.096C487.232 171.133 487.059 171.157 486.813 171.145H486.875Z" fill="#FFE3D3"/>
<path d="M479.963 125.591C483.837 126.818 488.486 140.076 488.486 140.076L473.469 150.804C473.469 150.804 467.984 139.695 469.619 134.699C471.267 129.494 475.51 124.253 479.963 125.591Z" fill="#4A3AFF"/>
<path opacity="0.5" d="M479.963 125.591C483.837 126.818 488.486 140.076 488.486 140.076L473.469 150.804C473.469 150.804 467.984 139.695 469.619 134.699C471.267 129.494 475.51 124.253 479.963 125.591Z" fill="#4A3AFF"/>
<path d="M468.894 163.865L465.696 154.106L460.605 162.319C460.605 162.319 463.606 167.634 467.566 167.548L468.894 163.865Z" fill="#FFE3D3"/>
<path d="M459.018 149.663L455.131 156.77L460.567 162.319L465.659 154.106L459.018 149.663Z" fill="#FFE3D3"/>
<path d="M446.928 93.478L445.022 93.3062C445.022 93.3062 446.227 94.5337 446.928 93.478Z" fill="#27266A"/>
<path opacity="0.6" d="M473.654 180.941L474.65 184.402C474.785 184.66 474.466 184.943 474.01 184.943H434.236C433.88 184.943 433.597 184.771 433.572 184.55L433.228 181.162C433.228 180.916 433.498 180.72 433.88 180.72H473.027C473.141 180.702 473.259 180.713 473.368 180.751C473.478 180.79 473.576 180.855 473.654 180.941V180.941Z" fill="white"/>
<path d="M468.402 185.311H469.447C469.657 185.311 469.816 185.2 469.804 185.078L469.312 180.585C469.312 180.45 469.115 180.352 468.906 180.352H467.861C467.652 180.352 467.492 180.45 467.504 180.585L467.996 185.078C468.008 185.2 468.193 185.311 468.402 185.311Z" fill="#4A3AFF"/>
<path opacity="0.6" d="M468.402 185.311H469.447C469.657 185.311 469.816 185.2 469.804 185.078L469.312 180.585C469.312 180.45 469.115 180.352 468.906 180.352H467.861C467.652 180.352 467.492 180.45 467.504 180.585L467.996 185.078C468.008 185.2 468.193 185.311 468.402 185.311Z" fill="white"/>
<path d="M437.176 185.311H438.221C438.43 185.311 438.59 185.2 438.578 185.078L438.086 180.585C438.086 180.45 437.889 180.352 437.68 180.352H436.635C436.425 180.352 436.266 180.45 436.278 180.585L436.77 185.078C436.782 185.2 436.917 185.311 437.176 185.311Z" fill="#4A3AFF"/>
<path opacity="0.6" d="M437.176 185.311H438.221C438.43 185.311 438.59 185.2 438.578 185.078L438.086 180.585C438.086 180.45 437.889 180.352 437.68 180.352H436.635C436.425 180.352 436.266 180.45 436.278 180.585L436.77 185.078C436.782 185.2 436.917 185.311 437.176 185.311Z" fill="white"/>
<path d="M452.782 185.311H453.84C454.049 185.311 454.209 185.2 454.184 185.078L453.692 180.585C453.692 180.45 453.495 180.352 453.286 180.352H452.241C452.032 180.352 451.872 180.45 451.884 180.585L452.376 185.078C452.41 185.155 452.468 185.219 452.541 185.261C452.614 185.303 452.698 185.321 452.782 185.311V185.311Z" fill="#4A3AFF"/>
<path opacity="0.6" d="M452.782 185.311H453.84C454.049 185.311 454.209 185.2 454.184 185.078L453.692 180.585C453.692 180.45 453.495 180.352 453.286 180.352H452.241C452.032 180.352 451.872 180.45 451.884 180.585L452.376 185.078C452.41 185.155 452.468 185.219 452.541 185.261C452.614 185.303 452.698 185.321 452.782 185.311V185.311Z" fill="white"/>
<path d="M329.426 408.552H410.782C412.68 408.575 414.561 408.2 416.305 407.454C418.05 406.708 419.618 405.606 420.911 404.219C422.203 402.832 423.191 401.19 423.81 399.4C424.43 397.609 424.667 395.709 424.508 393.822L405.051 116.102C404.713 112.13 402.912 108.425 399.994 105.704C397.077 102.983 393.252 101.439 389.259 101.371H307.903C306.005 101.349 304.124 101.723 302.38 102.469C300.636 103.216 299.067 104.318 297.774 105.705C296.482 107.092 295.494 108.733 294.875 110.524C294.256 112.314 294.018 114.214 294.178 116.102L313.634 393.834C313.975 397.803 315.778 401.505 318.695 404.224C321.612 406.943 325.435 408.485 329.426 408.552Z" fill="#4A3AFF"/>
<path opacity="0.58" d="M329.426 408.552H410.782C412.68 408.575 414.561 408.2 416.305 407.454C418.05 406.708 419.618 405.606 420.911 404.219C422.203 402.832 423.191 401.19 423.81 399.4C424.43 397.609 424.667 395.709 424.508 393.822L405.051 116.102C404.713 112.13 402.912 108.425 399.994 105.704C397.077 102.983 393.252 101.439 389.259 101.371H307.903C306.005 101.349 304.124 101.723 302.38 102.469C300.636 103.216 299.067 104.318 297.774 105.705C296.482 107.092 295.494 108.733 294.875 110.524C294.256 112.314 294.018 114.214 294.178 116.102L313.634 393.834C313.975 397.803 315.778 401.505 318.695 404.224C321.612 406.943 325.435 408.485 329.426 408.552Z" fill="white"/>
<path d="M318.775 408.552H400.119C402.017 408.575 403.898 408.2 405.642 407.454C407.387 406.708 408.955 405.606 410.248 404.219C411.54 402.832 412.528 401.19 413.147 399.4C413.766 397.609 414.004 395.709 413.844 393.822L394.388 116.102C394.05 112.13 392.248 108.425 389.331 105.704C386.414 102.983 382.589 101.439 378.596 101.371H297.252C295.355 101.349 293.473 101.723 291.729 102.469C289.985 103.216 288.416 104.318 287.124 105.705C285.831 107.092 284.844 108.733 284.224 110.524C283.605 112.314 283.367 114.214 283.527 116.102L302.983 393.822C303.321 397.793 305.123 401.498 308.04 404.219C310.957 406.941 314.783 408.485 318.775 408.552V408.552Z" fill="#4A3AFF"/>
<path opacity="0.79" d="M318.775 408.552H400.119C402.017 408.575 403.898 408.2 405.642 407.454C407.387 406.708 408.955 405.606 410.248 404.219C411.54 402.832 412.528 401.19 413.147 399.4C413.766 397.609 414.004 395.709 413.844 393.822L394.388 116.102C394.05 112.13 392.248 108.425 389.331 105.704C386.414 102.983 382.589 101.439 378.596 101.371H297.252C295.355 101.349 293.473 101.723 291.729 102.469C289.985 103.216 288.416 104.318 287.124 105.705C285.831 107.092 284.844 108.733 284.224 110.524C283.605 112.314 283.367 114.214 283.527 116.102L302.983 393.822C303.321 397.793 305.123 401.498 308.04 404.219C310.957 406.941 314.783 408.485 318.775 408.552V408.552Z" fill="white"/>
<path d="M333.878 189.828H348.932C349.286 189.843 349.639 189.781 349.967 189.646C350.295 189.512 350.59 189.308 350.832 189.049C351.074 188.79 351.257 188.483 351.368 188.147C351.479 187.811 351.517 187.455 351.478 187.103L347.874 135.669C347.813 134.932 347.479 134.245 346.938 133.742C346.397 133.238 345.687 132.953 344.947 132.943H329.918C329.565 132.931 329.213 132.994 328.886 133.129C328.56 133.265 328.266 133.468 328.026 133.727C327.785 133.986 327.604 134.293 327.493 134.628C327.382 134.963 327.345 135.318 327.384 135.669L330.988 187.103C331.048 187.833 331.377 188.515 331.91 189.018C332.444 189.521 333.144 189.809 333.878 189.828Z" fill="#4A3AFF"/>
<path d="M333.878 189.828H348.932C349.286 189.843 349.639 189.781 349.967 189.646C350.295 189.512 350.59 189.308 350.832 189.049C351.074 188.79 351.257 188.483 351.368 188.147C351.479 187.811 351.517 187.455 351.478 187.103L347.874 135.669C347.813 134.932 347.479 134.245 346.938 133.742C346.397 133.238 345.687 132.953 344.947 132.943H329.918C329.565 132.931 329.213 132.994 328.886 133.129C328.56 133.265 328.266 133.468 328.026 133.727C327.785 133.986 327.604 134.293 327.493 134.628C327.382 134.963 327.345 135.318 327.384 135.669L330.988 187.103C331.048 187.833 331.377 188.515 331.91 189.018C332.444 189.521 333.144 189.809 333.878 189.828Z" fill="white"/>
<path d="M241.675 408.552H160.318C158.421 408.575 156.539 408.2 154.795 407.454C153.051 406.708 151.482 405.606 150.19 404.219C148.897 402.832 147.91 401.19 147.29 399.4C146.671 397.609 146.433 395.709 146.593 393.822L166.05 116.102C166.39 112.131 168.192 108.428 171.109 105.707C174.026 102.987 177.85 101.442 181.841 101.371H263.197C265.095 101.349 266.976 101.723 268.721 102.469C270.465 103.216 272.034 104.318 273.326 105.705C274.618 107.092 275.606 108.733 276.225 110.524C276.845 112.314 277.082 114.214 276.923 116.102L257.466 393.822C257.129 397.793 255.327 401.498 252.41 404.219C249.492 406.941 245.667 408.485 241.675 408.552Z" fill="#4A3AFF"/>
<path opacity="0.7" d="M241.675 408.552H160.318C158.421 408.575 156.539 408.2 154.795 407.454C153.051 406.708 151.482 405.606 150.19 404.219C148.897 402.832 147.91 401.19 147.29 399.4C146.671 397.609 146.433 395.709 146.593 393.822L166.05 116.102C166.39 112.131 168.192 108.428 171.109 105.707C174.026 102.987 177.85 101.442 181.841 101.371H263.197C265.095 101.349 266.976 101.723 268.721 102.469C270.465 103.216 272.034 104.318 273.326 105.705C274.618 107.092 275.606 108.733 276.225 110.524C276.845 112.314 277.082 114.214 276.923 116.102L257.466 393.822C257.129 397.793 255.327 401.498 252.41 404.219C249.492 406.941 245.667 408.485 241.675 408.552Z" fill="white"/>
<path d="M231.011 408.552H149.667C147.77 408.575 145.888 408.2 144.144 407.454C142.4 406.708 140.831 405.606 139.539 404.219C138.246 402.832 137.259 401.19 136.639 399.4C136.02 397.609 135.782 395.709 135.942 393.822L155.399 116.102C155.736 112.13 157.538 108.425 160.455 105.704C163.373 102.983 167.198 101.439 171.19 101.371H252.534C254.432 101.349 256.313 101.723 258.057 102.469C259.802 103.216 261.37 104.318 262.663 105.705C263.955 107.092 264.943 108.733 265.562 110.524C266.182 112.314 266.419 114.214 266.26 116.102L246.803 393.822C246.465 397.793 244.664 401.498 241.746 404.219C238.829 406.941 235.004 408.485 231.011 408.552V408.552Z" fill="#4A3AFF"/>
<path opacity="0.8" d="M231.011 408.552H149.667C147.77 408.575 145.888 408.2 144.144 407.454C142.4 406.708 140.831 405.606 139.539 404.219C138.246 402.832 137.259 401.19 136.639 399.4C136.02 397.609 135.782 395.709 135.942 393.822L155.399 116.102C155.736 112.13 157.538 108.425 160.455 105.704C163.373 102.983 167.198 101.439 171.19 101.371H252.534C254.432 101.349 256.313 101.723 258.057 102.469C259.802 103.216 261.37 104.318 262.663 105.705C263.955 107.092 264.943 108.733 265.562 110.524C266.182 112.314 266.419 114.214 266.26 116.102L246.803 393.822C246.465 397.793 244.664 401.498 241.746 404.219C238.829 406.941 235.004 408.485 231.011 408.552V408.552Z" fill="white"/>
<path d="M243.213 392.57H136.103C135.846 392.569 135.592 392.515 135.357 392.412C135.122 392.31 134.91 392.16 134.735 391.973C134.56 391.785 134.425 391.564 134.339 391.323C134.252 391.081 134.216 390.825 134.233 390.569L153.186 120.03C153.22 119.555 153.433 119.112 153.782 118.788C154.132 118.465 154.591 118.285 155.067 118.287H262.165C262.423 118.286 262.678 118.338 262.915 118.44C263.151 118.542 263.364 118.692 263.541 118.879C263.717 119.067 263.853 119.289 263.94 119.531C264.027 119.773 264.063 120.031 264.047 120.288L245.057 390.827C245.026 391.296 244.819 391.736 244.477 392.059C244.135 392.382 243.683 392.565 243.213 392.57V392.57Z" fill="#4A3AFF"/>
<path d="M243.213 392.57H136.103C135.846 392.569 135.592 392.515 135.357 392.412C135.122 392.31 134.91 392.16 134.735 391.973C134.56 391.785 134.425 391.564 134.339 391.323C134.252 391.081 134.216 390.825 134.233 390.569L153.186 120.03C153.22 119.555 153.433 119.112 153.782 118.788C154.132 118.465 154.591 118.285 155.067 118.287H262.165C262.423 118.286 262.678 118.338 262.915 118.44C263.151 118.542 263.364 118.692 263.541 118.879C263.717 119.067 263.853 119.289 263.94 119.531C264.027 119.773 264.063 120.031 264.047 120.288L245.057 390.827C245.026 391.296 244.819 391.736 244.477 392.059C244.135 392.382 243.683 392.565 243.213 392.57V392.57Z" fill="white"/>
<path d="M240.605 145.981H171.08C169.19 146.013 167.38 146.744 165.999 148.032C164.617 149.32 163.764 151.074 163.603 152.953L156.359 256.313C156.283 257.207 156.396 258.107 156.69 258.955C156.983 259.803 157.452 260.581 158.064 261.237C158.677 261.894 159.421 262.415 160.248 262.768C161.074 263.121 161.966 263.297 162.865 263.285H167.686L165.226 270.859C170.914 270.348 176.174 267.628 179.874 263.285H232.39C234.28 263.253 236.09 262.522 237.471 261.234C238.853 259.946 239.706 258.193 239.867 256.313L247.111 152.953C247.185 152.06 247.071 151.16 246.776 150.313C246.482 149.466 246.014 148.689 245.401 148.033C244.789 147.377 244.046 146.855 243.22 146.502C242.394 146.148 241.504 145.971 240.605 145.981V145.981Z" fill="#4A3AFF"/>
<path opacity="0.91" d="M240.605 145.981H171.08C169.19 146.013 167.38 146.744 165.999 148.032C164.617 149.32 163.764 151.074 163.603 152.953L156.359 256.313C156.283 257.207 156.396 258.107 156.69 258.955C156.983 259.803 157.452 260.581 158.064 261.237C158.677 261.894 159.421 262.415 160.248 262.768C161.074 263.121 161.966 263.297 162.865 263.285H167.686L165.226 270.859C170.914 270.348 176.174 267.628 179.874 263.285H232.39C234.28 263.253 236.09 262.522 237.471 261.234C238.853 259.946 239.706 258.193 239.867 256.313L247.111 152.953C247.185 152.06 247.071 151.16 246.776 150.313C246.482 149.466 246.014 148.689 245.401 148.033C244.789 147.377 244.046 146.855 243.22 146.502C242.394 146.148 241.504 145.971 240.605 145.981V145.981Z" fill="white"/>
<path d="M161.425 284.092H230.95C231.849 284.08 232.741 284.256 233.568 284.609C234.394 284.962 235.138 285.483 235.751 286.14C236.363 286.796 236.832 287.574 237.125 288.422C237.419 289.27 237.532 290.17 237.456 291.064L234.345 335.465C234.184 337.344 233.33 339.098 231.949 340.386C230.568 341.674 228.757 342.405 226.867 342.437H222.034L223.387 350.011C220.72 349.789 218.132 348.997 215.798 347.691C213.464 346.384 211.438 344.593 209.858 342.437H157.318C156.419 342.449 155.527 342.273 154.7 341.92C153.874 341.567 153.13 341.046 152.517 340.389C151.905 339.733 151.436 338.955 151.143 338.107C150.849 337.259 150.736 336.359 150.812 335.465L153.923 291.064C154.085 289.18 154.942 287.424 156.328 286.135C157.715 284.847 159.531 284.118 161.425 284.092V284.092Z" fill="#4A3AFF"/>
<path opacity="0.91" d="M161.425 284.092H230.95C231.849 284.08 232.741 284.256 233.568 284.609C234.394 284.962 235.138 285.483 235.751 286.14C236.363 286.796 236.832 287.574 237.125 288.422C237.419 289.27 237.532 290.17 237.456 291.064L234.345 335.465C234.184 337.344 233.33 339.098 231.949 340.386C230.568 341.674 228.757 342.405 226.867 342.437H222.034L223.387 350.011C220.72 349.789 218.132 348.997 215.798 347.691C213.464 346.384 211.438 344.593 209.858 342.437H157.318C156.419 342.449 155.527 342.273 154.7 341.92C153.874 341.567 153.13 341.046 152.517 340.389C151.905 339.733 151.436 338.955 151.143 338.107C150.849 337.259 150.736 336.359 150.812 335.465L153.923 291.064C154.085 289.18 154.942 287.424 156.328 286.135C157.715 284.847 159.531 284.118 161.425 284.092V284.092Z" fill="white"/>
<path d="M224.211 109.142C224.162 109.764 223.883 110.346 223.429 110.775C222.974 111.204 222.376 111.448 221.751 111.462C221.452 111.466 221.155 111.408 220.879 111.291C220.604 111.174 220.356 111 220.152 110.782C219.948 110.563 219.792 110.304 219.695 110.022C219.598 109.739 219.561 109.439 219.586 109.142C219.64 108.521 219.921 107.942 220.374 107.515C220.828 107.087 221.423 106.84 222.046 106.822C222.345 106.817 222.642 106.875 222.918 106.992C223.193 107.109 223.441 107.283 223.645 107.502C223.849 107.72 224.005 107.979 224.102 108.262C224.2 108.544 224.237 108.844 224.211 109.142V109.142Z" fill="#4A3AFF"/>
<path opacity="0.5" d="M224.211 109.142C224.162 109.764 223.883 110.346 223.429 110.775C222.974 111.204 222.376 111.448 221.751 111.462C221.452 111.466 221.155 111.408 220.879 111.291C220.604 111.174 220.356 111 220.152 110.782C219.948 110.563 219.792 110.304 219.695 110.022C219.598 109.739 219.561 109.439 219.586 109.142C219.64 108.521 219.921 107.942 220.374 107.515C220.828 107.087 221.423 106.84 222.046 106.822C222.345 106.817 222.642 106.875 222.918 106.992C223.193 107.109 223.441 107.283 223.645 107.502C223.849 107.72 224.005 107.979 224.102 108.262C224.2 108.544 224.237 108.844 224.211 109.142V109.142Z" fill="white"/>
<path d="M212.232 111.462H196.01C195.711 111.464 195.415 111.405 195.14 111.287C194.866 111.169 194.619 110.996 194.415 110.777C194.212 110.559 194.056 110.301 193.958 110.019C193.859 109.738 193.821 109.439 193.845 109.141C193.896 108.52 194.176 107.94 194.63 107.511C195.084 107.083 195.68 106.837 196.305 106.821H212.527C212.826 106.819 213.122 106.878 213.396 106.996C213.671 107.114 213.918 107.287 214.121 107.506C214.325 107.724 214.481 107.982 214.579 108.264C214.677 108.545 214.715 108.844 214.691 109.141V109.141C214.64 109.763 214.361 110.343 213.907 110.772C213.453 111.2 212.856 111.445 212.232 111.462Z" fill="#4A3AFF"/>
<path opacity="0.5" d="M212.232 111.462H196.01C195.711 111.464 195.415 111.405 195.14 111.287C194.866 111.169 194.619 110.996 194.415 110.777C194.212 110.559 194.056 110.301 193.958 110.019C193.859 109.738 193.821 109.439 193.845 109.141C193.896 108.52 194.176 107.94 194.63 107.511C195.084 107.083 195.68 106.837 196.305 106.821H212.527C212.826 106.819 213.122 106.878 213.396 106.996C213.671 107.114 213.918 107.287 214.121 107.506C214.325 107.724 214.481 107.982 214.579 108.264C214.677 108.545 214.715 108.844 214.691 109.141V109.141C214.64 109.763 214.361 110.343 213.907 110.772C213.453 111.2 212.856 111.445 212.232 111.462Z" fill="white"/>
<path d="M125.623 164.799L127.554 168.567C128.231 169.795 128.92 171.133 129.633 172.397C131.06 174.938 132.511 177.455 134.036 179.898C136.947 184.709 140.28 189.253 143.998 193.474C144.92 194.395 145.916 195.5 146.556 196.003C147.45 196.723 148.404 197.364 149.409 197.918C151.804 199.179 154.297 200.246 156.862 201.11C162.391 202.942 168.021 204.454 173.724 205.639L173.33 212.403C166.926 212.778 160.499 212.403 154.181 211.286C150.815 210.704 147.518 209.779 144.342 208.524C142.575 207.82 140.885 206.935 139.3 205.885C138.479 205.339 137.698 204.736 136.963 204.08L135.02 202.374C130.327 197.829 126.16 192.773 122.598 187.3C120.815 184.636 119.13 181.935 117.592 179.161C116.818 177.774 116.055 176.375 115.329 174.963C114.604 173.551 113.915 172.176 113.189 170.581L125.623 164.799Z" fill="#FFE3D3"/>
<path d="M171.264 205.639L176.737 201.785L179.627 212.931C179.627 212.931 174.806 214.625 171.177 212.182L171.264 205.639Z" fill="#FFE3D3"/>
<path d="M184.289 199.256L186.232 208.585L179.615 212.931L176.725 201.785L184.289 199.256Z" fill="#FFE3D3"/>
<path d="M219.057 189.374L217.569 189.104C216.015 188.835 214.419 188.932 212.908 189.386L208.616 190.687C210.807 186.168 211.627 181.108 210.977 176.129C210.461 172.372 207.632 173.232 207.632 173.232C207.632 173.232 203.487 188.846 194.878 194.836L192.172 196.715L196.034 224.224L199.22 223.929C200.449 223.929 207.447 223.929 211.961 223.929C213.287 223.872 214.584 223.518 215.755 222.894C216.926 222.269 217.941 221.39 218.725 220.32C221.025 217.283 222.342 213.617 222.501 209.813L223.313 197.009C223.51 193.228 221.689 189.828 219.057 189.374Z" fill="#4A3AFF"/>
<path d="M219.057 189.374L217.569 189.104C216.015 188.835 214.419 188.932 212.908 189.386L208.616 190.687C210.807 186.168 211.627 181.108 210.977 176.129C210.461 172.372 207.632 173.232 207.632 173.232C207.632 173.232 203.487 188.846 194.878 194.836L192.172 196.715L196.034 224.224L199.22 223.929C200.449 223.929 207.447 223.929 211.961 223.929C213.287 223.872 214.584 223.518 215.755 222.894C216.926 222.269 217.941 221.39 218.725 220.32C221.025 217.283 222.342 213.617 222.501 209.813L223.313 197.009C223.51 193.228 221.689 189.828 219.057 189.374Z" fill="white"/>
<path d="M184.08 230.607L196.206 227.968C197.153 227.772 197.818 226.47 197.67 225.083L194.509 193.572C194.362 192.185 193.476 191.228 192.529 191.424L180.403 194.063C179.456 194.26 178.791 195.561 178.939 196.948L182.1 228.459C182.247 229.846 183.133 230.804 184.08 230.607Z" fill="#4A3AFF"/>
<path d="M160.713 126.732C160.565 127.444 160.823 128.095 161.291 128.193C161.758 128.291 162.262 127.8 162.41 127.088C162.557 126.376 162.299 125.713 161.832 125.615C161.365 125.517 160.86 126.02 160.713 126.732Z" fill="#27266A"/>
<path d="M160.761 128.083C161.156 130.435 161.872 132.724 162.888 134.883C162.331 135.131 161.725 135.253 161.115 135.24C160.505 135.227 159.905 135.08 159.359 134.809L160.761 128.083Z" fill="#E8AD8C"/>
<path d="M162.655 122.375C162.572 122.373 162.491 122.348 162.422 122.301C161.95 122.046 161.424 121.907 160.887 121.894C160.35 121.881 159.818 121.995 159.335 122.228C159.232 122.274 159.115 122.278 159.009 122.239C158.903 122.2 158.817 122.121 158.769 122.019C158.745 121.968 158.731 121.912 158.729 121.855C158.727 121.798 158.737 121.742 158.758 121.689C158.778 121.636 158.81 121.588 158.85 121.548C158.89 121.507 158.938 121.476 158.99 121.454C159.603 121.163 160.278 121.023 160.956 121.046C161.635 121.07 162.298 121.256 162.889 121.589C162.937 121.619 162.978 121.658 163.01 121.704C163.042 121.751 163.065 121.803 163.076 121.858C163.088 121.913 163.088 121.97 163.077 122.025C163.066 122.08 163.044 122.132 163.012 122.178C162.974 122.239 162.922 122.289 162.859 122.323C162.797 122.357 162.727 122.375 162.655 122.375V122.375Z" fill="#27266A"/>
<path d="M135.401 129.015C136.631 135.607 137.983 147.698 133.359 152.093C133.359 152.093 135.167 158.795 147.454 158.795C160.982 158.795 153.898 152.093 153.898 152.093C146.519 150.338 146.728 144.887 148.007 139.818L135.401 129.015Z" fill="#FFE3D3"/>
<path d="M131.49 153.984C130.604 151.823 130.752 147.846 131.404 147.785C133.962 147.613 147.614 147.576 152.127 149.307C152.724 149.495 153.278 149.799 153.756 150.203C154.234 150.606 154.627 151.1 154.912 151.656C155.196 152.213 155.368 152.82 155.416 153.443C155.463 154.066 155.386 154.692 155.19 155.285L131.49 153.984Z" fill="#4A3AFF"/>
<path d="M171.891 160.871C174.585 165.781 177.241 170.814 179.861 175.798L187.708 190.761L189.675 194.444C190.092 195.337 190.585 196.191 191.151 196.997C192.525 198.65 194.193 200.036 196.071 201.085C200.616 203.674 205.444 205.733 210.46 207.223L209.698 213.95C208.155 213.982 206.611 213.933 205.073 213.802C203.544 213.705 202.021 213.529 200.511 213.275C197.384 212.793 194.319 211.97 191.373 210.82C188.017 209.562 184.947 207.646 182.345 205.185C181.051 203.847 179.916 202.364 178.963 200.766L176.651 197.083C173.625 192.173 170.711 187.238 167.907 182.279C165.115 177.283 162.409 172.275 159.814 167.156L171.891 160.871Z" fill="#FFE3D3"/>
<path d="M110.434 159.569C106.745 167.438 118.539 192.283 118.539 192.283L138.685 182.954C136.486 175.905 133.748 169.035 130.494 162.405C125.23 151.983 114.173 151.529 110.434 159.569Z" fill="#4A3AFF"/>
<path opacity="0.8" d="M110.434 159.569C106.745 167.438 118.539 192.283 118.539 192.283L138.685 182.954C136.486 175.905 133.748 169.035 130.494 162.405C125.23 151.983 114.173 151.529 110.434 159.569Z" fill="white"/>
<path d="M121.245 161.177L116.694 188.122C117.776 190.663 118.539 192.283 118.539 192.283L138.684 182.954C138.684 182.954 129.583 167.254 121.245 161.177Z" fill="#4A3AFF"/>
<path opacity="0.7" d="M121.245 161.177L116.694 188.122C117.776 190.663 118.539 192.283 118.539 192.283L138.684 182.954C138.684 182.954 129.583 167.254 121.245 161.177Z" fill="white"/>
<path d="M167.796 154.597C167.796 154.597 177.414 165.449 168.337 232.547H120.015C119.671 225.181 124.332 189.03 117.187 154.131C122.528 153.104 127.93 152.424 133.359 152.093C140.2 151.7 147.058 151.7 153.898 152.093C158.588 152.572 163.234 153.409 167.796 154.597Z" fill="#4A3AFF"/>
<path opacity="0.8" d="M167.796 154.597C167.796 154.597 177.414 165.449 168.337 232.547H120.015C119.671 225.181 124.332 189.03 117.187 154.131C122.528 153.104 127.93 152.424 133.359 152.093C140.2 151.7 147.058 151.7 153.898 152.093C158.588 152.572 163.234 153.409 167.796 154.597Z" fill="white"/>
<path d="M171.695 170.568L164.229 188.981L171.695 199.82C172.433 190.083 172.433 180.305 171.695 170.568V170.568Z" fill="#4A3AFF"/>
<path opacity="0.7" d="M171.695 170.568L164.229 188.981L171.695 199.82C172.433 190.083 172.433 180.305 171.695 170.568V170.568Z" fill="white"/>
<path d="M156.038 160.551C153.062 168.653 165.016 193.229 165.016 193.229L186.662 182.34C183.889 174.974 180.335 167.924 176.061 161.312C169.579 151.86 159.31 151.701 156.038 160.551Z" fill="#4A3AFF"/>
<path opacity="0.8" d="M156.038 160.551C153.062 168.653 165.016 193.229 165.016 193.229L186.662 182.34C183.889 174.974 180.335 167.924 176.061 161.312C169.579 151.86 159.31 151.701 156.038 160.551Z" fill="white"/>
<path d="M208.664 207.542L217.519 204.006L219.979 214.661C219.979 214.661 212.944 217.202 207.828 213.508L208.664 207.542Z" fill="#FFE3D3"/>
<path d="M227.285 204.117L225.92 213.643L219.967 214.661L217.52 204.006L227.285 204.117Z" fill="#FFE3D3"/>
<path d="M137.234 120.276C136.004 129.126 134.774 134.245 138.23 139.659C143.481 147.797 155.128 146.042 159.039 137.744C162.569 130.28 164.082 117.047 156.235 111.781C154.505 110.629 152.51 109.934 150.437 109.761C148.365 109.588 146.282 109.942 144.384 110.791C142.486 111.639 140.834 112.954 139.584 114.613C138.333 116.272 137.525 118.22 137.234 120.276V120.276Z" fill="#FFE3D3"/>
<path d="M171.326 105.398C163.676 98.3391 169.727 96.5469 169.727 96.5469C169.727 96.5469 161.339 93.0852 164.66 100.5C169.297 110.836 156.309 107.656 150.086 100.5C146.249 96.0804 136.152 100.61 136.644 104.919C137.136 109.227 121.27 105.889 128.453 115.292C128.588 125.112 132.413 134.662 137.492 137.252C146.2 141.684 152.73 129.286 155.165 119.355C168.301 125.652 179.246 112.701 171.326 105.398Z" fill="#27266A"/>
<path d="M148.523 125.272C148.573 127.506 149.355 129.662 150.75 131.409C152.607 133.668 154.722 132.428 155.214 129.814C155.657 127.457 155.214 123.443 152.877 122.129C150.54 120.816 148.511 122.596 148.523 125.272Z" fill="#FFE3D3"/>
<path d="M128.539 106.097C132.486 105.948 136.357 107.205 139.46 109.645C139.46 109.645 137.234 100.144 128.539 106.097Z" fill="#27266A"/>
<path d="M147.171 232.547C147.171 232.547 148.979 269.079 155.657 301.29C157.785 311.49 156.395 322.416 150.405 330.947C132.806 356.001 104.9 389.366 104.9 389.366L90.2769 387.733C90.2769 387.733 113.952 343.922 126.079 322.158C128.833 317.248 131.269 312.755 129.19 307.427C109.106 256.545 119.966 232.547 119.966 232.547H147.171Z" fill="#4A3AFF"/>
<path opacity="0.3" d="M147.171 232.547C147.171 232.547 148.979 269.079 155.657 301.29C157.785 311.49 156.395 322.416 150.405 330.947C132.806 356.001 104.9 389.366 104.9 389.366L90.2769 387.733C90.2769 387.733 113.952 343.922 126.079 322.158C128.833 317.248 131.269 312.755 129.19 307.427C109.106 256.545 119.966 232.547 119.966 232.547H147.171Z" fill="#27266A"/>
<path d="M149.889 264.12L135.893 247.45C135.364 254.925 139.89 282.889 155.411 300.075C152.939 287.959 151.156 275.18 149.889 264.12Z" fill="#4A3AFF"/>
<path opacity="0.4" d="M149.889 264.12L135.893 247.45C135.364 254.925 139.89 282.889 155.411 300.075C152.939 287.959 151.156 275.18 149.889 264.12Z" fill="#27266A"/>
<path d="M168.338 232.547C168.338 232.547 175.902 257.785 188.397 290.242C192.468 300.799 194.042 310.963 191.214 319.899C182.445 347.642 174.868 389.366 174.868 389.366L159.802 387.733C159.802 387.733 159.224 345.174 164.562 323.238C167.305 311.981 166.37 307.881 163.554 304.162C125.182 253.207 135.488 232.584 135.488 232.584L168.338 232.547Z" fill="#4A3AFF"/>
<path opacity="0.3" d="M168.338 232.547C168.338 232.547 175.902 257.785 188.397 290.242C192.468 300.799 194.042 310.963 191.214 319.899C182.445 347.642 174.868 389.366 174.868 389.366L159.802 387.733C159.802 387.733 159.224 345.174 164.562 323.238C167.305 311.981 166.37 307.881 163.554 304.162C125.182 253.207 135.488 232.584 135.488 232.584L168.338 232.547Z" fill="#27266A"/>
</g>
</g>
</g>
<defs>
<clipPath id="clip0_3680_20645">
<rect width="586" height="328" fill="white"/>
</clipPath>
</defs>
</svg>
