<svg width="586" height="328" viewBox="0 0 586 328" fill="none" xmlns="http://www.w3.org/2000/svg">
<g clip-path="url(#clip0_3680_20649)">
<rect width="586" height="328" fill="white"/>
<mask id="mask0_3680_20649" style="mask-type:alpha" maskUnits="userSpaceOnUse" x="0" y="-1" width="586" height="330">
<path d="M0 -0.5H586V328.5H0V-0.5Z" fill="#C4C4C4"/>
</mask>
<g mask="url(#mask0_3680_20649)">
<rect width="586" height="329.737" transform="translate(0 -0.5)" fill="#F2F1FF"/>
<mask id="mask1_3680_20649" style="mask-type:alpha" maskUnits="userSpaceOnUse" x="0" y="-1" width="586" height="331">
<rect y="-0.5" width="586" height="329.737" fill="#F2F1FF"/>
</mask>
<g mask="url(#mask1_3680_20649)">
<rect y="-0.5" width="586" height="329.737" fill="#F2F1FF"/>
<path opacity="0.03" d="M299.871 312.383H51.9788C50.0368 312.38 48.1755 311.607 46.8036 310.235C45.4316 308.864 44.661 307.005 44.661 305.066V-42.7405C44.6779 -44.6677 45.4559 -46.5104 46.8261 -47.8683C48.1962 -49.2263 50.0479 -49.9899 51.9788 -49.9932H299.871C301.815 -49.9932 303.68 -49.2223 305.055 -47.8501C306.429 -46.478 307.202 -44.617 307.202 -42.6764V305.066C307.202 307.007 306.429 308.868 305.055 310.24C303.68 311.612 301.815 312.383 299.871 312.383V312.383ZM51.9788 -49.7369C50.1219 -49.7335 48.3423 -48.9949 47.0305 -47.6832C45.7187 -46.3715 44.982 -44.5939 44.982 -42.7405V305.066C44.982 306.92 45.7187 308.697 47.0305 310.009C48.3423 311.321 50.1219 312.059 51.9788 312.063H299.871C301.729 312.059 303.51 311.321 304.824 310.01C306.138 308.698 306.877 306.921 306.881 305.066V-42.7405C306.877 -44.595 306.138 -46.3726 304.824 -47.684C303.51 -48.9953 301.729 -49.7335 299.871 -49.7369H51.9788Z" fill="#4A3AFF"/>
<path d="M382.41 21.6104H205.218C196.809 21.6104 189.992 28.4144 189.992 36.8076V397.518C189.992 405.911 196.809 412.715 205.218 412.715H382.41C390.819 412.715 397.636 405.911 397.636 397.518V36.8076C397.636 28.4144 390.819 21.6104 382.41 21.6104Z" fill="#3324D5"/>
<path opacity="0.82" d="M382.41 21.6104H205.218C196.809 21.6104 189.992 28.4144 189.992 36.8076V397.518C189.992 405.911 196.809 412.715 205.218 412.715H382.41C390.819 412.715 397.636 405.911 397.636 397.518V36.8076C397.636 28.4144 390.819 21.6104 382.41 21.6104Z" fill="white"/>
<path d="M390.73 397.518V36.7949C390.73 31.6359 386.54 27.4536 381.371 27.4536L204.179 27.4536C199.01 27.4536 194.82 31.6359 194.82 36.7949L194.82 397.518C194.82 402.677 199.01 406.859 204.179 406.859H381.371C386.54 406.859 390.73 402.677 390.73 397.518Z" fill="white"/>
<path d="M284.687 26.3901C284.687 28.7045 285.608 30.924 287.248 32.5605C288.888 34.197 291.111 35.1164 293.43 35.1164C295.749 35.1164 297.973 34.197 299.612 32.5605C301.252 30.924 302.173 28.7045 302.173 26.3901H284.687Z" fill="#3324D5"/>
<path opacity="0.82" d="M284.687 26.3901C284.687 28.7045 285.608 30.924 287.248 32.5605C288.888 34.197 291.111 35.1164 293.43 35.1164C295.749 35.1164 297.973 34.197 299.612 32.5605C301.252 30.924 302.173 28.7045 302.173 26.3901H284.687Z" fill="white"/>
<path d="M350.598 64.2554H236.338C231.678 64.2689 227.212 66.1228 223.916 69.412C220.621 72.7013 218.764 77.1586 218.75 81.8104V93.5222C218.764 98.174 220.621 102.631 223.916 105.921C227.212 109.21 231.678 111.064 236.338 111.077H350.598L368.186 121.482V81.7591C368.156 77.1173 366.291 72.6751 362.998 69.3976C359.705 66.1201 355.249 64.2722 350.598 64.2554V64.2554Z" fill="#F2F1FF"/>
<path d="M347.413 81.0283H239.457V83.9499H347.413V81.0283Z" fill="white"/>
<path d="M347.414 91.3818H260.23V94.3034H347.414V91.3818Z" fill="white"/>
<path opacity="0.08" d="M236.273 142.214H350.533C355.193 142.227 359.659 144.081 362.955 147.371C366.25 150.66 368.108 155.117 368.121 159.769V171.468C368.108 176.12 366.25 180.577 362.955 183.866C359.659 187.156 355.193 189.009 350.533 189.023H236.273L218.685 199.428V159.705C218.712 155.063 220.576 150.62 223.87 147.344C227.165 144.068 231.623 142.224 236.273 142.214V142.214Z" fill="#4A3AFF"/>
<path opacity="0.2" d="M347.413 158.976H239.457V161.897H347.413V158.976Z" fill="#4A3AFF"/>
<path opacity="0.2" d="M289.525 169.341H239.457V172.263H289.525V169.341Z" fill="#4A3AFF"/>
<path opacity="0.2" d="M317.706 169.341H297.345V172.263H317.706V169.341Z" fill="#4A3AFF"/>
<path d="M350.598 220.161H236.338C231.678 220.175 227.212 222.029 223.916 225.318C220.621 228.607 218.764 233.064 218.75 237.716V249.415C218.76 254.068 220.616 258.527 223.913 261.817C227.209 265.107 231.677 266.96 236.338 266.97H350.598L368.186 277.375V237.652C368.153 233.013 366.287 228.574 362.994 225.299C359.701 222.024 355.246 220.178 350.598 220.161Z" fill="#F2F1FF"/>
<path d="M347.413 236.922H239.457V239.843H347.413V236.922Z" fill="white"/>
<path d="M347.414 247.288H260.23V250.21H347.414V247.288Z" fill="white"/>
<path opacity="0.08" d="M236.273 298.108H280.732C285.391 298.125 289.855 299.98 293.15 303.268C296.445 306.557 298.303 311.012 298.32 315.663V327.375C298.303 332.025 296.445 336.481 293.15 339.769C289.855 343.058 285.391 344.913 280.732 344.93H236.273L218.685 355.322V315.663C218.698 311.011 220.556 306.554 223.851 303.265C227.147 299.975 231.613 298.121 236.273 298.108V298.108Z" fill="#4A3AFF"/>
<path opacity="0.2" d="M245.183 321.518C245.183 322.532 244.882 323.523 244.318 324.366C243.753 325.209 242.951 325.866 242.013 326.254C241.075 326.641 240.042 326.743 239.046 326.545C238.05 326.347 237.135 325.859 236.417 325.142C235.698 324.426 235.209 323.512 235.011 322.518C234.813 321.524 234.915 320.493 235.303 319.557C235.692 318.62 236.35 317.82 237.195 317.256C238.039 316.693 239.032 316.393 240.048 316.393C241.405 316.409 242.701 316.955 243.661 317.912C244.62 318.87 245.166 320.164 245.183 321.518V321.518Z" fill="#4A3AFF"/>
<path opacity="0.2" d="M255.569 322.557C258.44 322.557 260.768 320.233 260.768 317.367C260.768 314.501 258.44 312.178 255.569 312.178C252.697 312.178 250.369 314.501 250.369 317.367C250.369 320.233 252.697 322.557 255.569 322.557Z" fill="#4A3AFF"/>
<path opacity="0.2" d="M276.342 327.733C276.342 328.747 276.04 329.738 275.476 330.581C274.912 331.424 274.11 332.081 273.171 332.469C272.233 332.857 271.201 332.958 270.204 332.761C269.208 332.563 268.293 332.075 267.575 331.358C266.857 330.641 266.368 329.728 266.17 328.733C265.972 327.739 266.073 326.709 266.462 325.772C266.851 324.835 267.509 324.035 268.353 323.472C269.198 322.909 270.191 322.608 271.206 322.608C272.568 322.608 273.874 323.148 274.838 324.109C275.801 325.07 276.342 326.374 276.342 327.733Z" fill="#4A3AFF"/>
<path d="M482.175 297.828L487.22 292.908L495.231 301.557C495.231 301.557 492.33 306.619 485.115 303.671L482.175 297.828Z" fill="#FFE3D3"/>
<path d="M494.834 289.653L499.251 296.841L495.245 301.557L487.234 292.908L494.834 289.653Z" fill="#FFE3D3"/>
<path d="M414.993 256.503C425.263 252.544 433.223 258.451 446.202 274.802L431.002 290.396C431.002 290.396 394.965 264.166 414.993 256.503Z" fill="#4A3AFF"/>
<path opacity="0.2" d="M434.277 273.417C429.424 270.278 425.2 271.162 421.631 274.084C422.979 279.068 426.433 284.783 429.758 289.46C430.541 290.075 431.042 290.409 431.042 290.409L439.515 281.708C439.294 280.03 438.711 278.421 437.807 276.989C436.903 275.558 435.698 274.34 434.277 273.417Z" fill="#27266A"/>
<path d="M431.901 325.429C431.901 325.429 463.817 295.803 484.537 295.355C499.661 295.034 510.471 344.957 510.471 344.957L492.497 345.303C492.497 345.303 489.339 327.645 477.592 322.776C460.62 348.199 391.435 398.442 397.995 343.97C408.266 340.113 431.901 325.429 431.901 325.429Z" fill="#4A3AFF"/>
<path opacity="0.4" d="M431.901 325.429C431.901 325.429 463.817 295.803 484.537 295.355C499.661 295.034 510.471 344.957 510.471 344.957L492.497 345.303C492.497 345.303 489.339 327.645 477.592 322.776C460.62 348.199 391.435 398.442 397.995 343.97C408.266 340.113 431.901 325.429 431.901 325.429Z" fill="white"/>
<path d="M389.997 345.854C389.997 345.854 376.273 319.098 374.591 276.005C374.206 265.857 383.36 256.285 393.848 255.747C402.655 255.285 411.976 255.17 419.525 255.196C427.074 255.221 432.851 260.219 433.711 267.471C435.611 283.463 435.945 307.745 445.766 336.666L389.997 345.854Z" fill="#4A3AFF"/>
<path opacity="0.2" d="M381.024 276.224C388.586 267.703 391.192 270.42 392.322 271.445C402.798 280.914 387.417 310.399 384.336 314.743C382.171 303.731 380.884 292.565 380.485 281.35C380.406 279.624 380.588 277.896 381.024 276.224V276.224Z" fill="#27266A"/>
<path d="M404.068 230.132C403.22 237.987 401.141 250.045 395.787 255.645C399.998 259.604 406.854 263.5 416.598 265.127C421.63 263.051 422.298 258.425 419.859 255.209C411.257 253.71 411.36 251.275 414.608 245.804L404.068 230.132Z" fill="#FFE3D3"/>
<path opacity="0.2" d="M408.368 236.527L414.607 245.791C413.78 247.066 413.136 248.451 412.694 249.905C409.639 248.623 406.275 243.959 406.943 240.525C407.176 239.118 407.659 237.764 408.368 236.527Z" fill="#27266A"/>
<path d="M426.611 215.652C431.656 220.996 442.261 221.022 437.703 214.691C433.146 208.361 422.682 211.488 426.611 215.652Z" fill="#27266A"/>
<path d="M406.16 215.076C403.348 225.327 401.191 231.068 404.388 238.141C405.359 240.448 406.947 242.443 408.979 243.909C411.01 245.375 413.407 246.255 415.906 246.452C418.405 246.649 420.91 246.156 423.147 245.027C425.384 243.898 427.266 242.176 428.588 240.05C433.723 231.952 437.498 216.639 429.269 208.861C427.564 207.123 425.426 205.87 423.075 205.23C420.724 204.589 418.245 204.585 415.892 205.218C413.539 205.851 411.397 207.098 409.687 208.83C407.976 210.563 406.759 212.719 406.16 215.076Z" fill="#FFE3D3"/>
<path d="M403.862 224.584C405.146 224.353 411.488 222.431 414.582 219.458C418.061 216.114 418.086 212.872 417.149 211.398C416.212 209.925 408.869 207.093 405.441 207.746C400.023 208.784 401.358 218.356 401.435 220.945C401.476 221.712 401.723 222.455 402.15 223.095C402.576 223.736 403.168 224.25 403.862 224.584Z" fill="#FFE3D3"/>
<path opacity="0.7" d="M403.862 224.584C405.146 224.353 411.488 222.431 414.582 219.458C418.061 216.114 418.086 212.872 417.149 211.398C416.212 209.925 408.869 207.093 405.441 207.746C400.023 208.784 401.358 218.356 401.435 220.945C401.476 221.712 401.723 222.455 402.15 223.095C402.576 223.736 403.168 224.25 403.862 224.584Z" fill="#27266A"/>
<path d="M398.483 225.289C399.482 227.491 401.273 229.238 403.503 230.184C406.455 231.375 408.137 228.902 407.495 225.891C406.918 223.239 404.684 219.407 401.641 219.484C398.598 219.561 397.276 222.572 398.483 225.289Z" fill="#FFE3D3"/>
<path d="M408.138 210.809C421.233 213.602 430.541 220.958 436.729 216.537C441.107 213.41 438.231 207.708 433.211 203.582C428.923 200.058 422.941 198.969 421.143 196.086C420.934 197.045 421.015 198.044 421.376 198.957C421.737 199.87 422.362 200.654 423.172 201.211C423.172 201.211 411.348 199.392 408.074 196.317C407.291 198.149 410.321 201.686 410.321 201.686C410.321 201.686 406.983 204.851 397.483 201.276C398.048 204.338 400.692 209.22 408.138 210.809Z" fill="#27266A"/>
<path d="M434.147 217.575H433.633V216.908C434.764 217.049 435.91 216.815 436.896 216.244C437.881 215.672 438.652 214.794 439.09 213.743C439.581 212.339 439.617 210.816 439.193 209.39C438.769 207.965 437.907 206.708 436.727 205.799C435.593 204.918 434.356 204.178 433.043 203.595C430 202.07 426.547 200.34 424.878 195.304L425.507 195.099C427.086 199.866 430.27 201.506 433.351 202.992C434.723 203.603 436.017 204.378 437.202 205.299C438.499 206.29 439.447 207.667 439.909 209.231C440.37 210.795 440.322 212.465 439.77 214C439.319 215.103 438.536 216.04 437.529 216.681C436.521 217.321 435.34 217.634 434.147 217.575V217.575Z" fill="#27266A"/>
<path d="M421.001 225.032C420.718 225.839 420.924 226.672 421.437 226.877C421.951 227.082 422.605 226.595 422.888 225.788C423.17 224.981 422.965 224.148 422.451 223.943C421.938 223.738 421.27 224.199 421.001 225.032Z" fill="#27266A"/>
<path d="M430.681 227.954C430.411 228.762 430.604 229.582 431.13 229.787C431.657 229.992 432.298 229.518 432.568 228.698C432.838 227.877 432.658 227.07 432.132 226.852C431.605 226.635 430.963 227.134 430.681 227.954Z" fill="#27266A"/>
<path d="M427.124 226.967C427.225 229.838 427.709 232.682 428.562 235.424C426.688 236.193 424.493 234.63 424.493 234.63L427.124 226.967Z" fill="#FFE3D3"/>
<path d="M419.268 236.578C417.528 235.622 416.237 234.019 415.673 232.119C415.663 232.088 415.66 232.055 415.665 232.023C415.669 231.99 415.679 231.959 415.696 231.931C415.713 231.903 415.736 231.88 415.763 231.861C415.79 231.843 415.82 231.83 415.853 231.824C415.885 231.817 415.918 231.816 415.95 231.822C415.983 231.827 416.014 231.839 416.041 231.857C416.069 231.875 416.093 231.899 416.111 231.926C416.129 231.953 416.142 231.984 416.148 232.016C416.477 233.05 417.034 233.996 417.778 234.786C418.523 235.575 419.435 236.188 420.449 236.578C420.512 236.604 420.562 236.653 420.588 236.716C420.615 236.778 420.615 236.849 420.59 236.911C420.582 236.943 420.567 236.972 420.546 236.997C420.525 237.022 420.499 237.042 420.469 237.055C420.44 237.069 420.408 237.075 420.375 237.075C420.343 237.074 420.311 237.067 420.282 237.052C419.933 236.917 419.595 236.759 419.268 236.578V236.578Z" fill="#27266A"/>
<path d="M418.369 219.727C418.29 219.685 418.223 219.623 418.176 219.548C418.103 219.437 418.077 219.302 418.103 219.172C418.13 219.043 418.207 218.929 418.317 218.856C418.968 218.416 419.719 218.144 420.501 218.066C421.283 217.988 422.072 218.105 422.798 218.407C422.859 218.435 422.915 218.474 422.961 218.524C423.007 218.573 423.044 218.63 423.067 218.694C423.091 218.757 423.102 218.824 423.1 218.891C423.098 218.959 423.082 219.025 423.055 219.086C423.03 219.145 422.993 219.199 422.947 219.243C422.9 219.288 422.846 219.322 422.786 219.345C422.726 219.368 422.662 219.378 422.598 219.376C422.533 219.373 422.471 219.357 422.413 219.33V219.33C421.834 219.106 421.209 219.025 420.592 219.094C419.975 219.164 419.384 219.381 418.869 219.727C418.793 219.771 418.707 219.794 418.619 219.794C418.531 219.794 418.445 219.771 418.369 219.727V219.727Z" fill="#27266A"/>
<path d="M433.981 225.558C433.902 225.531 433.83 225.485 433.772 225.425C433.714 225.365 433.671 225.292 433.647 225.212C433.482 224.588 433.177 224.009 432.754 223.521C432.331 223.032 431.803 222.646 431.208 222.393C431.081 222.349 430.975 222.258 430.913 222.139C430.851 222.02 430.837 221.881 430.874 221.752C430.89 221.69 430.919 221.632 430.959 221.581C430.998 221.531 431.048 221.489 431.105 221.459C431.162 221.429 431.224 221.411 431.288 221.406C431.352 221.401 431.417 221.41 431.478 221.432C432.233 221.735 432.908 222.211 433.447 222.82C433.986 223.43 434.376 224.157 434.584 224.943C434.606 225.005 434.615 225.071 434.611 225.137C434.606 225.202 434.589 225.267 434.559 225.325C434.529 225.384 434.487 225.436 434.436 225.478C434.385 225.52 434.327 225.552 434.263 225.571C434.17 225.592 434.072 225.588 433.981 225.558Z" fill="#27266A"/>
<path opacity="0.4" d="M410.037 341.946C410.037 341.946 466.14 285.052 491.393 309.399C507.12 324.57 530.228 345.47 530.228 345.47L516.838 358.476C516.838 358.476 482.92 340.472 474.087 330.529C427.741 382.246 386.325 385.782 390.048 345.906C396.618 344.154 403.295 342.831 410.037 341.946V341.946Z" fill="white"/>
<path d="M390.189 272.393L391.293 295.714C391.498 299.558 391.742 303.402 392.038 307.246C392.192 309.13 392.397 310.988 392.603 312.769C392.718 313.666 392.834 314.537 392.975 315.332C393.116 316.126 393.27 316.87 393.373 317.318C393.379 317.386 393.379 317.455 393.373 317.523C393.161 317.142 392.862 316.817 392.5 316.575C392.29 316.424 392.056 316.311 391.807 316.242C391.665 316.242 391.588 316.242 391.653 316.242C392.703 316.403 393.777 316.333 394.798 316.037C398.194 315.191 401.5 314.019 404.67 312.538C408.098 311.039 411.513 309.309 414.941 307.515C418.369 305.721 421.797 303.812 425.122 301.954L429.923 308.361C423.904 313.952 417.366 318.96 410.396 323.315C408.612 324.404 406.763 325.455 404.812 326.442C402.774 327.491 400.658 328.382 398.482 329.107C397.245 329.515 395.979 329.831 394.695 330.055C393.117 330.349 391.506 330.426 389.907 330.286C388.873 330.189 387.855 329.965 386.877 329.619C385.698 329.205 384.589 328.613 383.59 327.864C382.549 327.058 381.651 326.083 380.933 324.981C380.605 324.476 380.313 323.95 380.06 323.405L379.572 322.226C379.121 321.005 378.739 319.76 378.429 318.497C378.147 317.356 377.916 316.293 377.71 315.229C377.287 313.115 376.966 311.052 376.683 309.015C376.093 304.94 375.669 300.916 375.31 296.906C374.591 288.884 374.167 280.952 374.026 272.892L390.189 272.393Z" fill="#FFE3D3"/>
<path d="M386.248 257.362C380.202 258.041 371.151 263.769 370.843 290.396L396.776 288.359C396.776 288.359 408.998 254.761 386.248 257.362Z" fill="#4A3AFF"/>
<path d="M446.934 288.461L437.306 289.089C436.737 289.168 436.206 289.415 435.78 289.799C435.354 290.183 435.054 290.685 434.918 291.242L430.412 312.359C430.335 312.589 430.318 312.834 430.361 313.072C430.404 313.31 430.506 313.534 430.658 313.723C430.81 313.911 431.007 314.059 431.231 314.152C431.454 314.245 431.698 314.28 431.939 314.255L441.568 313.627C442.138 313.552 442.671 313.306 443.097 312.922C443.524 312.537 443.823 312.033 443.956 311.475L448.462 290.357C448.538 290.128 448.556 289.883 448.513 289.644C448.47 289.406 448.368 289.182 448.216 288.994C448.064 288.805 447.867 288.658 447.643 288.564C447.419 288.471 447.176 288.436 446.934 288.461Z" fill="white"/>
<path d="M425.906 301.454L433.878 298.687L431.914 311.154C431.914 311.154 423.03 313.102 422.298 308.335L423.582 304.094C423.744 303.507 424.037 302.965 424.44 302.508C424.842 302.05 425.344 301.69 425.906 301.454V301.454Z" fill="#FFE3D3"/>
<path d="M442.993 299.737L439.54 310.834L431.914 311.154L433.878 298.687L442.993 299.737Z" fill="#FFE3D3"/>
<path d="M166.845 79.4272C160.58 64.9091 194.742 49.7118 204.397 72.3155C220.791 79.4272 199.839 109.668 204.576 114.793C209.314 119.919 212.883 113.704 212.883 113.704C212.883 113.704 217.671 126.441 205.462 136.641C194.524 145.803 161.62 148.289 161.543 130.234C161.44 106.759 175.061 98.4558 166.845 79.4272Z" fill="#27266A"/>
<path d="M164.843 132.066C164.239 134.821 163.559 137.307 162.789 139.883C162.018 142.458 161.222 145.008 160.298 147.468C158.522 152.524 156.438 157.466 154.059 162.268L152.172 165.856C151.491 167.035 150.888 168.214 150.117 169.38L149.013 171.11C148.628 171.699 148.333 172.225 147.807 172.917C147.55 173.25 147.293 173.583 146.946 173.98C146.51 174.493 146.02 174.957 145.483 175.364C144.834 175.86 144.085 176.21 143.288 176.389C142.917 176.473 142.538 176.516 142.158 176.517C141.693 176.522 141.23 176.458 140.784 176.325C139.951 176.101 139.193 175.658 138.589 175.044C137.983 174.438 137.541 173.689 137.305 172.866C137.186 172.486 137.104 172.095 137.061 171.699C136.961 170.775 136.961 169.843 137.061 168.919C137.151 168.15 137.279 167.432 137.408 166.741C137.664 165.344 137.998 164.037 138.345 162.73C139.066 160.158 139.923 157.625 140.913 155.144L146.048 156.272L145.701 163.96C145.701 165.241 145.624 166.446 145.611 167.625C145.611 168.214 145.611 168.791 145.611 169.303C145.609 169.672 145.661 170.039 145.765 170.392C145.765 170.392 145.765 170.392 145.765 170.162C145.607 169.677 145.334 169.238 144.969 168.88C144.472 168.375 143.853 168.004 143.172 167.804C142.803 167.705 142.424 167.649 142.042 167.637C141.74 167.643 141.439 167.677 141.144 167.74C140.684 167.852 140.249 168.047 139.86 168.317C139.59 168.509 139.693 168.406 139.744 168.317L140.04 167.817L141.76 164.742C142.338 163.665 142.864 162.563 143.429 161.474L145.008 158.142C147.011 153.619 148.859 148.968 150.4 144.227C151.196 141.856 151.928 139.46 152.659 137.064C153.391 134.667 154.046 132.194 154.624 129.926L164.843 132.066Z" fill="#FFE3D3"/>
<path d="M160.452 118.727C156.729 119.329 150.824 142.945 150.824 142.945L159.412 149.544C159.412 149.544 168.027 132.476 168.399 124.8C168.656 119.239 163.264 118.278 160.452 118.727Z" fill="#FFE3D3"/>
<path d="M146.985 157.412L145.534 145.675L138.794 155.541C139.081 156.731 139.709 157.811 140.6 158.651C141.491 159.49 142.608 160.053 143.814 160.27L146.985 157.412Z" fill="#FFE3D3"/>
<path d="M159.824 118.65C159.824 118.65 154.688 119.931 154.688 180.58L195.886 184.219C197.953 167.317 199.622 156.925 213.269 123.071C207.67 121.36 201.949 120.075 196.156 119.227C189.973 118.223 183.726 117.671 177.463 117.574C169.247 117.587 159.824 118.65 159.824 118.65Z" fill="#4A3AFF"/>
<path opacity="0.2" d="M205.091 130.811L207.286 138.281C205.566 142.907 204.141 146.994 202.947 150.672C202.037 143.976 202.773 137.159 205.091 130.811Z" fill="#27266A"/>
<path d="M145.534 145.675L138.794 155.541L146.985 155.067L151.35 146.046L145.534 145.675Z" fill="#FFE3D3"/>
<path d="M149.808 168.368L157.511 168.253C157.765 168.248 158.015 168.189 158.244 168.081C158.474 167.973 158.678 167.817 158.843 167.625C159.007 167.433 159.13 167.207 159.201 166.964C159.273 166.721 159.292 166.466 159.257 166.215L156.857 148.981C156.8 148.548 156.585 148.152 156.253 147.868C155.921 147.584 155.496 147.433 155.059 147.443L147.356 147.558C147.103 147.559 146.852 147.615 146.622 147.721C146.391 147.827 146.186 147.981 146.021 148.173C145.855 148.365 145.733 148.59 145.662 148.833C145.591 149.077 145.574 149.332 145.61 149.583L148.011 166.817C148.068 167.251 148.282 167.649 148.614 167.935C148.945 168.22 149.37 168.375 149.808 168.368Z" fill="white"/>
<path d="M197.696 97.8916C195.526 103.837 192.561 114.806 196.091 119.214C189.95 124.338 183.068 128.507 175.679 131.579C171.378 121.559 177.399 117.561 177.399 117.561C184.37 116.549 185.012 111.526 184.601 106.72L197.696 97.8916Z" fill="#FFE3D3"/>
<path d="M169.477 91.0747C168.398 108.873 157.678 113.973 160.195 123.109C163.751 135.923 178.258 125.89 178.258 125.89C178.258 125.89 170.363 128.453 169.862 122.225C169.451 117.1 187.681 117.894 182.623 105.836C179.375 98.0711 169.477 91.0747 169.477 91.0747Z" fill="#27266A"/>
<path opacity="0.2" d="M193.959 102.389L184.613 106.72C184.715 107.846 184.715 108.978 184.613 110.103C186.564 110.283 191.622 108.822 193.535 105.67C194.065 104.662 194.216 103.498 193.959 102.389Z" fill="#27266A"/>
<path d="M199.313 81.1563C200.25 91.2536 200.867 95.5206 196.592 101.441C190.172 110.346 177.527 109.296 173.586 99.6595C170.029 90.9973 169.092 75.9282 178.297 70.4311C180.319 69.2057 182.622 68.5172 184.987 68.4311C187.351 68.345 189.698 68.8641 191.804 69.9391C193.911 71.0141 195.707 72.6092 197.021 74.5726C198.335 76.536 199.124 78.8025 199.313 81.1563Z" fill="#FFE3D3"/>
<path d="M197.079 71.0209C189.093 65.5494 182.456 76.0567 196.629 86.2694C210.803 96.482 206.155 77.2356 197.079 71.0209Z" fill="#27266A"/>
<path d="M192.829 68.0864C196.129 71.0464 176.486 81.9638 165.805 78.3375C155.124 74.7112 163.7 66.5744 167.59 65.5236C164.252 68.7399 170.093 73.622 172.917 70.5723C175.742 67.5226 186.205 62.1536 192.829 68.0864Z" fill="#27266A"/>
<path d="M154.636 180.58C154.636 180.58 132.901 272.442 134.814 295.635C137.035 322.749 166.743 366.458 166.743 366.458L180.39 354.092C180.39 354.092 166.846 318.29 156.819 294.969C160.028 271.648 188.401 205.759 188.401 183.565L154.636 180.58Z" fill="#4A3AFF"/>
<path opacity="0.62" d="M154.636 180.58C154.636 180.58 132.901 272.442 134.814 295.635C137.035 322.749 166.743 366.458 166.743 366.458L180.39 354.092C180.39 354.092 166.846 318.29 156.819 294.969C160.028 271.648 188.401 205.759 188.401 183.565L154.636 180.58Z" fill="white"/>
<path opacity="0.1" d="M170.723 220.982C158.744 237.537 158.167 267.983 158.911 285.051C163.02 269.341 171.634 245.879 178.502 224.736C178.336 216.638 176.32 213.229 170.723 220.982Z" fill="#27266A"/>
<path d="M162.365 180.657C162.365 180.657 170.325 259.987 172.983 286.768C176.141 318.56 180.775 369.546 180.775 369.546L196.104 368.905C196.104 368.905 199.468 325.684 196.977 297.148C197.426 259.347 203.011 207.95 195.822 184.168L162.365 180.657Z" fill="#4A3AFF"/>
<path opacity="0.62" d="M162.365 180.657C162.365 180.657 170.325 259.987 172.983 286.768C176.141 318.56 180.775 369.546 180.775 369.546L196.104 368.905C196.104 368.905 199.468 325.684 196.977 297.148C197.426 259.347 203.011 207.95 195.822 184.168L162.365 180.657Z" fill="white"/>
<path d="M183.574 86.7304C183.702 87.5377 183.368 88.2681 182.829 88.3578C182.29 88.4475 181.764 87.8452 181.635 87.0764C181.507 86.3075 181.841 85.5387 182.38 85.449C182.919 85.3593 183.445 85.9103 183.574 86.7304Z" fill="#27266A"/>
<path d="M174.343 88.1538C174.471 88.9739 174.137 89.7043 173.598 89.7811C173.059 89.858 172.533 89.2686 172.404 88.4997C172.276 87.7309 172.61 86.9493 173.149 86.8724C173.688 86.7955 174.214 87.3465 174.343 88.1538Z" fill="#27266A"/>
<path d="M173.379 86.8329L171.338 86.5767C171.338 86.5767 172.583 87.9477 173.379 86.8329Z" fill="#27266A"/>
<path d="M177.372 88.9604C176.93 90.9305 176.221 92.8314 175.267 94.6114C175.729 94.8424 176.236 94.9701 176.752 94.9856C177.269 95.0011 177.783 94.904 178.258 94.7011L177.372 88.9604Z" fill="#E8AD8C"/>
<path d="M183.573 96.9434C183.156 97.0909 182.726 97.1982 182.289 97.2637C182.226 97.275 182.161 97.2612 182.108 97.2253C182.056 97.1893 182.019 97.1341 182.007 97.0715C182.001 97.0395 182.002 97.0067 182.01 96.9751C182.017 96.9435 182.031 96.9137 182.05 96.8874C182.069 96.8611 182.093 96.8389 182.121 96.8221C182.149 96.8053 182.18 96.7943 182.212 96.7896C183.232 96.6577 184.207 96.2856 185.055 95.7042C185.903 95.1227 186.601 94.3485 187.091 93.4452C187.121 93.3901 187.17 93.3479 187.229 93.3267C187.288 93.3054 187.353 93.3066 187.412 93.3299C187.441 93.3425 187.468 93.3607 187.49 93.3836C187.513 93.4066 187.53 93.4337 187.542 93.4634C187.554 93.4932 187.56 93.525 187.56 93.5571C187.559 93.5892 187.553 93.6208 187.54 93.6502C186.699 95.2226 185.275 96.4044 183.573 96.9434Z" fill="#27266A"/>
<path d="M202.125 88.0511C202.056 89.032 201.794 89.9898 201.353 90.8693C200.913 91.7489 200.302 92.533 199.558 93.1766C197.58 94.868 195.488 93.3816 195.116 90.9342C194.769 88.743 195.398 85.2192 197.824 84.5273C198.351 84.3658 198.91 84.3369 199.45 84.4433C199.991 84.5497 200.497 84.7879 200.923 85.1369C201.348 85.4858 201.681 85.9346 201.891 86.4431C202.101 86.9515 202.181 87.504 202.125 88.0511Z" fill="#FFE3D3"/>
<path d="M187.772 81.6817C187.708 81.6945 187.642 81.6942 187.579 81.681C187.515 81.6678 187.454 81.6419 187.4 81.6049C186.91 81.2412 186.34 80.9992 185.737 80.899C185.134 80.7987 184.516 80.843 183.934 81.0282C183.875 81.0531 183.812 81.0657 183.748 81.0656C183.684 81.0654 183.621 81.0524 183.562 81.0272C183.503 81.0021 183.45 80.9654 183.406 80.9194C183.362 80.8733 183.327 80.8188 183.305 80.7591C183.258 80.6401 183.26 80.5076 183.311 80.3901C183.361 80.2726 183.456 80.1797 183.574 80.1313C184.305 79.8831 185.085 79.8152 185.847 79.9335C186.609 80.0518 187.332 80.3527 187.952 80.8104C188.056 80.883 188.128 80.9932 188.152 81.1176C188.176 81.242 188.15 81.3708 188.081 81.4767C188.005 81.5784 187.896 81.6509 187.772 81.6817V81.6817Z" fill="#27266A"/>
<path d="M170.338 84.6161C170.282 84.6416 170.22 84.6547 170.158 84.6547C170.096 84.6547 170.035 84.6416 169.979 84.6161C169.921 84.59 169.868 84.5525 169.825 84.5058C169.782 84.4592 169.749 84.4043 169.727 84.3446C169.706 84.2848 169.696 84.2214 169.7 84.1579C169.703 84.0945 169.72 84.0325 169.748 83.9754C170.052 83.2689 170.522 82.6461 171.119 82.1598C171.716 81.6735 172.421 81.3381 173.175 81.182C173.298 81.1729 173.42 81.2107 173.516 81.2877C173.613 81.3647 173.676 81.4752 173.694 81.5969C173.712 81.7187 173.683 81.8427 173.613 81.944C173.543 82.0453 173.437 82.1164 173.317 82.143C172.721 82.2769 172.167 82.5501 171.698 82.9399C171.229 83.3298 170.86 83.8252 170.621 84.3854C170.592 84.441 170.552 84.4901 170.503 84.5298C170.455 84.5694 170.398 84.5988 170.338 84.6161Z" fill="#27266A"/>
<path d="M215.977 135.373C216.17 137.231 216.273 138.858 216.324 140.588C216.375 142.318 216.414 143.983 216.401 145.713C216.35 149.13 216.132 152.547 215.746 155.964C215.353 159.423 214.709 162.849 213.821 166.216C213.362 167.954 212.805 169.666 212.152 171.341C211.831 172.187 211.471 173.033 211.099 173.904C211.099 173.904 210.906 174.314 210.778 174.545C210.642 174.81 210.483 175.063 210.303 175.301C209.986 175.769 209.615 176.199 209.199 176.582C208.523 177.159 207.766 177.634 206.952 177.991C205.789 178.477 204.561 178.788 203.306 178.914C202.305 179.024 201.297 179.067 200.289 179.042C198.475 178.993 196.666 178.835 194.872 178.568C191.509 178.038 188.178 177.319 184.896 176.415C181.674 175.531 178.477 174.557 175.357 173.519C172.238 172.482 169.131 171.328 166.037 170.034L167.642 165.114C170.761 165.793 173.932 166.51 177.091 167.112C180.249 167.715 183.394 168.394 186.527 168.855C189.659 169.316 192.792 169.791 195.822 169.983C197.269 170.097 198.723 170.123 200.174 170.06C200.794 170.03 201.411 169.962 202.022 169.855C202.392 169.797 202.751 169.685 203.088 169.522C203.088 169.522 203.088 169.522 202.895 169.624C202.777 169.715 202.673 169.823 202.587 169.944L202.433 170.175C202.433 170.175 202.318 170.431 202.433 170.265C202.677 169.598 202.921 168.983 203.126 168.24C203.563 166.856 203.922 165.434 204.243 163.986C204.844 161.023 205.273 158.028 205.527 155.016C205.81 151.967 205.9 148.866 205.9 145.765C205.9 144.214 205.9 142.664 205.9 141.113C205.9 139.563 205.758 137.961 205.668 136.577L215.977 135.373Z" fill="#FFE3D3"/>
<path d="M213.166 123.071C217.595 125.954 216.093 151.082 216.093 151.082L205.668 153.171C205.668 153.171 205.579 140.357 204.462 132.041C203.704 126.39 210.008 121.008 213.166 123.071Z" fill="#FFE3D3"/>
<path d="M196.836 181.835L197.285 185.679C197.388 185.974 197.003 186.243 196.528 186.192L154.162 182.45C153.789 182.45 153.507 182.207 153.52 181.976L153.764 178.234C153.764 177.978 154.136 177.786 154.534 177.824L196.245 181.515C196.363 181.512 196.479 181.541 196.583 181.597C196.686 181.653 196.774 181.735 196.836 181.835V181.835Z" fill="white"/>
<path d="M190.468 186.039L191.584 186.128C191.816 186.128 191.995 186.051 192.008 185.91L192.265 181.054C192.265 180.913 192.098 180.772 191.88 180.759L190.75 180.657C190.532 180.657 190.339 180.734 190.326 180.875L190.07 185.744C190.07 185.885 190.249 186.013 190.468 186.039Z" fill="#4A3AFF"/>
<path opacity="0.6" d="M190.468 186.039L191.584 186.128C191.816 186.128 191.995 186.051 192.008 185.91L192.265 181.054C192.265 180.913 192.098 180.772 191.88 180.759L190.75 180.657C190.532 180.657 190.339 180.734 190.326 180.875L190.07 185.744C190.07 185.885 190.249 186.013 190.468 186.039Z" fill="#27266A"/>
<path d="M157.204 183.091L158.321 183.194C158.552 183.194 158.731 183.117 158.744 182.976L159.001 178.107C159.001 177.966 158.834 177.837 158.616 177.812L157.499 177.722C157.268 177.722 157.088 177.799 157.075 177.94L156.819 182.796C156.806 182.937 156.985 183.078 157.204 183.091Z" fill="#4A3AFF"/>
<path opacity="0.6" d="M157.204 183.091L158.321 183.194C158.552 183.194 158.731 183.117 158.744 182.976L159.001 178.107C159.001 177.966 158.834 177.837 158.616 177.812L157.499 177.722C157.268 177.722 157.088 177.799 157.075 177.94L156.819 182.796C156.806 182.937 156.985 183.078 157.204 183.091Z" fill="#27266A"/>
<path d="M173.842 184.565L174.959 184.667C175.177 184.667 175.37 184.578 175.37 184.437L175.64 179.58C175.64 179.439 175.473 179.311 175.242 179.286L174.125 179.183C173.906 179.183 173.714 179.273 173.714 179.414L173.444 184.27C173.444 184.411 173.624 184.501 173.842 184.565Z" fill="#4A3AFF"/>
<path opacity="0.6" d="M173.842 184.565L174.959 184.667C175.177 184.667 175.37 184.578 175.37 184.437L175.64 179.58C175.64 179.439 175.473 179.311 175.242 179.286L174.125 179.183C173.906 179.183 173.714 179.273 173.714 179.414L173.444 184.27C173.444 184.411 173.624 184.501 173.842 184.565Z" fill="#27266A"/>
<path d="M169.246 165.42L162.827 156.874L160.157 167.125C160.157 167.125 164.933 171.289 168.989 169.687L169.246 165.42Z" fill="#FFE3D3"/>
<path d="M154.612 154.991L152.827 163.64L161.493 168.061L162.867 156.874L154.612 154.991Z" fill="#FFE3D3"/>
<path d="M182.624 85.4106L180.57 85.1543C180.57 85.1543 181.764 86.5254 182.624 85.4106Z" fill="#27266A"/>
</g>
</g>
</g>
<defs>
<clipPath id="clip0_3680_20649">
<rect width="586" height="328" fill="white"/>
</clipPath>
</defs>
</svg>
