<svg width="21" height="21" viewBox="0 0 21 21" fill="none" xmlns="http://www.w3.org/2000/svg">
<path d="M17.3608 9.65632C17.3608 15.0352 11.8516 18.3489 10.7067 18.9801C10.6433 19.0151 10.572 19.0334 10.4996 19.0334C10.4272 19.0334 10.3559 19.0151 10.2925 18.9801C9.14676 18.3489 3.63928 15.0352 3.63928 9.65632C3.63928 5.36834 6.21207 2.36676 10.5 2.36676C14.788 2.36676 17.3608 5.36834 17.3608 9.65632Z" stroke="#4A3AFF" stroke-width="1.8" stroke-linecap="round" stroke-linejoin="round"/>
<path d="M7.0697 9.2275C7.0697 10.1373 7.43112 11.0098 8.07444 11.6531C8.71776 12.2965 9.59029 12.6579 10.5001 12.6579C11.4099 12.6579 12.2824 12.2965 12.9257 11.6531C13.569 11.0098 13.9305 10.1373 13.9305 9.2275C13.9305 8.31771 13.569 7.44518 12.9257 6.80185C12.2824 6.15853 11.4099 5.79712 10.5001 5.79712C9.59029 5.79712 8.71776 6.15853 8.07444 6.80185C7.43112 7.44518 7.0697 8.31771 7.0697 9.2275V9.2275Z" stroke="#4A3AFF" stroke-width="1.8" stroke-linecap="round" stroke-linejoin="round"/>
</svg>
