<svg width="30" height="31" viewBox="0 0 30 31" fill="none" xmlns="http://www.w3.org/2000/svg">
<path fill-rule="evenodd" clip-rule="evenodd" d="M7.5 15.5968C7.5 12.6009 7.5 11.1029 8.21391 10.0239C8.53271 9.54213 8.94532 9.12951 9.42713 8.81071C10.5061 8.0968 12.0041 8.0968 15 8.0968C17.9959 8.0968 19.4939 8.0968 20.5729 8.81071C21.0547 9.12951 21.4673 9.54213 21.7861 10.0239C22.5 11.1029 22.5 12.6009 22.5 15.5968C22.5 18.5928 22.5 20.0907 21.7861 21.1697C21.4673 21.6515 21.0547 22.0641 20.5729 22.3829C19.4939 23.0968 17.9959 23.0968 15 23.0968C12.0041 23.0968 10.5061 23.0968 9.42713 22.3829C8.94532 22.0641 8.53271 21.6515 8.21391 21.1697C7.5 20.0907 7.5 18.5928 7.5 15.5968ZM18.8827 15.597C18.8827 17.7414 17.1443 19.4798 14.9999 19.4798C12.8554 19.4798 11.117 17.7414 11.117 15.597C11.117 13.4526 12.8554 11.7142 14.9999 11.7142C17.1443 11.7142 18.8827 13.4526 18.8827 15.597ZM14.9999 18.1662C16.4188 18.1662 17.569 17.0159 17.569 15.597C17.569 14.1781 16.4188 13.0278 14.9999 13.0278C13.581 13.0278 12.4307 14.1781 12.4307 15.597C12.4307 17.0159 13.581 18.1662 14.9999 18.1662ZM19.0361 12.4314C19.5399 12.4314 19.9484 12.023 19.9484 11.5191C19.9484 11.0152 19.5399 10.6067 19.0361 10.6067C18.5322 10.6067 18.1237 11.0152 18.1237 11.5191C18.1237 12.023 18.5322 12.4314 19.0361 12.4314Z" fill="#4A3AFF"/>
</svg>
