<svg width="20" height="21" viewBox="0 0 20 21" fill="none" xmlns="http://www.w3.org/2000/svg">
<path d="M12.2516 17.982L12.2607 17.9884C13.0478 18.4895 13.9822 18.7072 14.9097 18.6053C15.8371 18.5034 16.7021 18.0882 17.3616 17.4282L17.9346 16.8553C18.0615 16.7284 18.1623 16.5777 18.231 16.4119C18.2997 16.2461 18.3351 16.0683 18.3351 15.8888C18.3351 15.7093 18.2997 15.5316 18.231 15.3658C18.1623 15.1999 18.0615 15.0493 17.9346 14.9224L15.518 12.5076C15.3911 12.3807 15.2405 12.28 15.0746 12.2112C14.9088 12.1425 14.7311 12.1072 14.5516 12.1072C14.3721 12.1072 14.1943 12.1425 14.0285 12.2112C13.8627 12.28 13.712 12.3807 13.5851 12.5076C13.3289 12.7638 12.9814 12.9077 12.6191 12.9077C12.2568 12.9077 11.9094 12.7638 11.6531 12.5076L7.7892 8.64278C7.53305 8.38656 7.38916 8.03909 7.38916 7.67679C7.38916 7.31449 7.53305 6.96703 7.7892 6.71081C7.91616 6.58392 8.01689 6.43326 8.0856 6.26743C8.15432 6.1016 8.18969 5.92386 8.18969 5.74436C8.18969 5.56486 8.15432 5.38712 8.0856 5.22129C8.01689 5.05546 7.91616 4.9048 7.7892 4.77792L5.37354 2.36317C5.11732 2.10703 4.76985 1.96313 4.40755 1.96313C4.04526 1.96313 3.69779 2.10703 3.44157 2.36317L2.86771 2.93612C2.20786 3.59576 1.7928 4.46078 1.69111 5.38824C1.58942 6.3157 1.80719 7.2501 2.30843 8.03705L2.3139 8.04616C4.96108 11.9627 8.33452 15.3356 12.2516 17.982V17.982Z" stroke="#4A3AFF" stroke-width="1.8" stroke-linecap="round" stroke-linejoin="round"/>
</svg>
