<svg width="20" height="21" viewBox="0 0 20 21" fill="none" xmlns="http://www.w3.org/2000/svg">
<path d="M18.3334 6.54651V14.8798C18.3334 15.4324 18.1139 15.9623 17.7232 16.353C17.3325 16.7437 16.8026 16.9632 16.25 16.9632H3.75002C3.19749 16.9632 2.66758 16.7437 2.27688 16.353C1.88618 15.9623 1.66669 15.4324 1.66669 14.8798V6.54651" stroke="#4A3AFF" stroke-width="1.8" stroke-linecap="round" stroke-linejoin="round"/>
<path d="M18.3334 6.54647C18.3334 5.99393 18.1139 5.46403 17.7232 5.07333C17.3325 4.68263 16.8026 4.46313 16.25 4.46313H3.75002C3.19749 4.46313 2.66758 4.68263 2.27688 5.07333C1.88618 5.46403 1.66669 5.99393 1.66669 6.54647L8.89585 11.0604C9.22696 11.2673 9.60956 11.377 10 11.377C10.3905 11.377 10.7731 11.2673 11.1042 11.0604L18.3334 6.54647Z" stroke="#4A3AFF" stroke-width="1.8" stroke-linecap="round" stroke-linejoin="round"/>
</svg>
