<svg width="178" height="26" viewBox="0 0 178 26" fill="none" xmlns="http://www.w3.org/2000/svg">
<g clip-path="url(#clip0_1377_22908)">
<path d="M12.1732 22.184C12.6817 21.8771 13.3183 21.8771 13.8268 22.184L19.0566 25.3405C20.2684 26.0719 21.7632 24.9855 21.4416 23.6072L20.0536 17.6586C19.9186 17.0801 20.1152 16.4746 20.5641 16.0857L25.1869 12.0811C26.2567 11.1543 25.6848 9.39706 24.2745 9.27745L18.1915 8.76155C17.6002 8.71139 17.0852 8.33806 16.8536 7.79166L14.4732 2.17546C13.9218 0.874657 12.0782 0.874661 11.5269 2.17547L9.14645 7.79167C8.91486 8.33807 8.39986 8.71139 7.80853 8.76155L1.7256 9.27745C0.315289 9.39706 -0.256595 11.1543 0.813196 12.0811L5.43596 16.0857C5.88489 16.4746 6.08144 17.0801 5.94648 17.6586L4.55848 23.6072C4.23687 24.9855 5.73168 26.0719 6.94341 25.3405L12.1732 22.184Z" fill="#4A3AFF"/>
</g>
<g clip-path="url(#clip1_1377_22908)">
<path d="M50.1732 22.184C50.6817 21.8771 51.3183 21.8771 51.8268 22.184L57.0566 25.3405C58.2684 26.0719 59.7632 24.9855 59.4416 23.6072L58.0536 17.6586C57.9186 17.0801 58.1152 16.4746 58.5641 16.0857L63.1869 12.0811C64.2567 11.1543 63.6848 9.39706 62.2745 9.27745L56.1915 8.76155C55.6002 8.71139 55.0852 8.33806 54.8536 7.79166L52.4732 2.17546C51.9218 0.874657 50.0782 0.874661 49.5269 2.17547L47.1464 7.79167C46.9149 8.33807 46.3999 8.71139 45.8085 8.76155L39.7256 9.27745C38.3153 9.39706 37.7434 11.1543 38.8132 12.0811L43.436 16.0857C43.8849 16.4746 44.0814 17.0801 43.9465 17.6586L42.5585 23.6072C42.2369 24.9855 43.7317 26.0719 44.9434 25.3405L50.1732 22.184Z" fill="#4A3AFF"/>
</g>
<g clip-path="url(#clip2_1377_22908)">
<path d="M88.1732 22.184C88.6817 21.8771 89.3183 21.8771 89.8268 22.184L95.0566 25.3405C96.2684 26.0719 97.7632 24.9855 97.4416 23.6072L96.0536 17.6586C95.9186 17.0801 96.1152 16.4746 96.5641 16.0857L101.187 12.0811C102.257 11.1543 101.685 9.39706 100.274 9.27745L94.1915 8.76155C93.6002 8.71139 93.0852 8.33806 92.8536 7.79166L90.4732 2.17546C89.9218 0.874657 88.0782 0.874661 87.5269 2.17547L85.1464 7.79167C84.9149 8.33807 84.3999 8.71139 83.8085 8.76155L77.7256 9.27745C76.3153 9.39706 75.7434 11.1543 76.8132 12.0811L81.436 16.0857C81.8849 16.4746 82.0814 17.0801 81.9465 17.6586L80.5585 23.6072C80.2369 24.9855 81.7317 26.0719 82.9434 25.3405L88.1732 22.184Z" fill="#4A3AFF"/>
</g>
<g clip-path="url(#clip3_1377_22908)">
<path d="M126.173 22.184C126.682 21.8771 127.318 21.8771 127.827 22.184L133.057 25.3405C134.268 26.0719 135.763 24.9855 135.442 23.6072L134.054 17.6586C133.919 17.0801 134.115 16.4746 134.564 16.0857L139.187 12.0811C140.257 11.1543 139.685 9.39706 138.274 9.27745L132.192 8.76155C131.6 8.71139 131.085 8.33806 130.854 7.79166L128.473 2.17546C127.922 0.874657 126.078 0.874661 125.527 2.17547L123.146 7.79167C122.915 8.33807 122.4 8.71139 121.809 8.76155L115.726 9.27745C114.315 9.39706 113.743 11.1543 114.813 12.0811L119.436 16.0857C119.885 16.4746 120.081 17.0801 119.946 17.6586L118.558 23.6072C118.237 24.9855 119.732 26.0719 120.943 25.3405L126.173 22.184Z" fill="#4A3AFF"/>
</g>
<g clip-path="url(#clip4_1377_22908)">
<path d="M164.173 22.184C164.682 21.8771 165.318 21.8771 165.827 22.184L171.057 25.3405C172.268 26.0719 173.763 24.9855 173.442 23.6072L172.054 17.6586C171.919 17.0801 172.115 16.4746 172.564 16.0857L177.187 12.0811C178.257 11.1543 177.685 9.39706 176.274 9.27745L170.192 8.76155C169.6 8.71139 169.085 8.33806 168.854 7.79166L166.473 2.17546C165.922 0.874657 164.078 0.874661 163.527 2.17547L161.146 7.79167C160.915 8.33807 160.4 8.71139 159.809 8.76155L153.726 9.27745C152.315 9.39706 151.743 11.1543 152.813 12.0811L157.436 16.0857C157.885 16.4746 158.081 17.0801 157.946 17.6586L156.558 23.6072C156.237 24.9855 157.732 26.0719 158.943 25.3405L164.173 22.184Z" fill="#4A3AFF"/>
</g>
<defs>
<clipPath id="clip0_1377_22908">
<rect width="26" height="26" fill="white"/>
</clipPath>
<clipPath id="clip1_1377_22908">
<rect width="26" height="26" fill="white" transform="translate(38)"/>
</clipPath>
<clipPath id="clip2_1377_22908">
<rect width="26" height="26" fill="white" transform="translate(76)"/>
</clipPath>
<clipPath id="clip3_1377_22908">
<rect width="26" height="26" fill="white" transform="translate(114)"/>
</clipPath>
<clipPath id="clip4_1377_22908">
<rect width="26" height="26" fill="white" transform="translate(152)"/>
</clipPath>
</defs>
</svg>
