<svg width="30" height="31" viewBox="0 0 30 31" fill="none" xmlns="http://www.w3.org/2000/svg">
<path d="M15.3655 21.4134L11.9804 21.3501C10.8843 21.3281 9.78558 21.3721 8.71103 21.1437C7.07639 20.8024 6.96059 19.1292 6.83941 17.7256C6.67245 15.7524 6.73708 13.7434 7.05217 11.7867C7.23005 10.6888 7.93008 10.0336 9.01265 9.96234C12.6671 9.70361 16.3459 9.73427 19.9922 9.85498C20.3773 9.86605 20.7651 9.92653 21.1448 9.99537C23.0192 10.3311 23.0649 12.2273 23.1864 13.8235C23.3076 15.4362 23.2565 17.0572 23.0249 18.6589C22.839 19.985 22.4835 21.0972 20.9832 21.2045C19.1034 21.3449 17.2668 21.4579 15.3817 21.4219C15.3817 21.4134 15.3709 21.4134 15.3655 21.4134ZM13.3754 18.0559C14.792 17.2247 16.1815 16.4074 17.59 15.5818C16.1708 14.7506 14.7839 13.9333 13.3754 13.1077V18.0559Z" fill="#4A3AFF"/>
</svg>
